<?xml version="1.0" standalone="no"?>
<!DOCTYPE svg PUBLIC "-//W3C//DTD SVG 20010904//EN"
 "http://www.w3.org/TR/2001/REC-SVG-20010904/DTD/svg10.dtd">
<svg version="1.0" xmlns="http://www.w3.org/2000/svg"
 width="1240.000000pt" height="1240.000000pt" viewBox="0 0 1240.000000 1240.000000"
 preserveAspectRatio="xMidYMid meet">
<metadata>
Created by potrace 1.11, written by Peter Selinger 2001-2013
</metadata>
<g transform="translate(0.000000,1240.000000) scale(0.100000,-0.100000)"
fill="#000000" stroke="none">
<path d="M8007 9625 c-32 -6 -60 -12 -62 -13 -8 -3 -9 -3 -32 -8 -12 -2 -82
-24 -155 -49 -73 -26 -141 -48 -150 -50 -9 -2 -27 -9 -40 -16 -13 -7 -24 -11
-26 -10 -1 1 -32 -8 -68 -21 -43 -15 -81 -38 -110 -65 l-45 -42 -137 4 c-75 3
-166 7 -202 9 -98 7 -210 16 -255 20 -22 3 -76 7 -120 11 -44 3 -91 8 -105 10
-14 2 -65 6 -113 10 -48 3 -96 8 -105 10 -27 5 -175 21 -270 30 -57 5 -121 12
-192 21 -24 3 -67 8 -95 10 -27 2 -63 5 -80 8 -16 2 -64 7 -105 11 -41 4 -86
9 -100 10 -60 7 -140 16 -181 19 -82 8 -164 17 -199 22 -19 3 -57 7 -85 9 -27
2 -70 6 -95 9 -50 6 -115 13 -203 21 -32 4 -68 8 -80 11 -59 12 -227 11 -286
-1 -62 -13 -92 -18 -191 -31 -25 -3 -70 -9 -100 -14 -30 -5 -71 -12 -90 -15
-19 -3 -71 -13 -115 -21 -44 -8 -91 -17 -105 -20 -14 -3 -33 -7 -42 -10 -10
-3 -29 -7 -43 -10 -31 -5 -211 -67 -267 -91 -182 -77 -397 -195 -578 -316
-115 -78 -329 -233 -345 -251 -5 -6 -28 -24 -50 -41 -43 -32 -158 -138 -184
-169 -9 -10 -27 -31 -41 -46 -49 -51 -167 -243 -162 -262 1 -5 -2 -8 -6 -8 -5
0 -14 -16 -22 -35 -8 -19 -17 -35 -22 -35 -4 0 -8 -5 -8 -11 0 -17 -81 -116
-167 -205 -111 -116 -247 -264 -251 -275 -2 -5 -16 -22 -30 -37 -40 -42 -82
-93 -92 -113 -6 -10 -16 -23 -23 -31 -19 -19 -97 -146 -97 -157 0 -5 -6 -16
-13 -23 -6 -7 -18 -29 -25 -48 -28 -71 -74 -206 -78 -225 -11 -54 -13 -66 -18
-73 -2 -4 -7 -27 -11 -52 -4 -25 -9 -48 -11 -51 -2 -4 -6 -26 -9 -49 -3 -24
-7 -46 -10 -50 -2 -3 -7 -29 -11 -56 -3 -27 -8 -57 -10 -66 -11 -48 -25 -121
-30 -153 -5 -37 -53 -259 -69 -320 -26 -101 -37 -135 -59 -187 -9 -21 -13 -38
-10 -38 4 0 2 -6 -3 -12 -6 -7 -16 -31 -23 -53 -7 -22 -16 -44 -20 -50 -4 -5
-20 -44 -35 -85 -15 -41 -33 -88 -40 -105 -26 -62 -155 -353 -190 -430 -20
-44 -36 -81 -36 -82 0 -2 -17 -39 -39 -82 -22 -44 -40 -83 -40 -86 0 -8 -14
-39 -82 -183 -26 -56 -48 -105 -48 -107 0 -3 -16 -39 -35 -81 -19 -41 -35 -78
-35 -81 0 -2 -13 -34 -30 -70 -16 -35 -30 -66 -30 -68 0 -2 -35 -77 -78 -167
-124 -257 -144 -328 -137 -478 3 -84 9 -135 16 -135 1 0 3 -9 4 -20 10 -86
212 -467 302 -572 34 -39 95 -67 190 -86 39 -8 76 -18 82 -21 6 -4 11 -2 11 4
0 6 4 9 9 6 33 -21 590 -30 703 -12 152 25 194 74 163 191 -9 33 -65 125 -77
125 -4 0 -16 10 -28 22 -11 12 -20 19 -20 15 0 -4 -12 -2 -27 4 -16 6 -59 13
-98 15 -76 4 -133 12 -145 19 -4 2 -15 34 -25 70 -19 70 -16 88 22 137 21 26
667 670 1129 1126 200 197 336 339 379 397 37 50 78 104 91 122 26 33 68 49
117 45 29 -2 137 -52 162 -74 30 -27 44 -38 50 -38 6 0 13 -5 165 -148 200
-187 288 -277 340 -352 13 -19 27 -37 30 -40 4 -3 34 -48 68 -100 34 -52 65
-100 69 -105 18 -24 45 -71 50 -87 3 -10 9 -18 14 -18 5 0 9 -6 9 -14 0 -7 11
-30 25 -50 13 -20 22 -36 19 -36 -3 0 3 -12 14 -27 10 -16 79 -149 153 -298
74 -148 136 -272 139 -275 3 -3 34 -63 69 -133 133 -268 262 -454 364 -523 86
-60 155 -79 317 -89 47 -3 105 -8 130 -11 25 -3 52 -5 60 -5 14 -1 78 -10 180
-25 25 -3 59 -8 75 -10 349 -37 711 -41 803 -9 7 2 14 4 17 5 15 0 71 35 98
62 27 25 32 38 32 74 0 68 -38 96 -255 191 -243 105 -353 194 -395 318 -22 67
-24 75 -30 179 -6 110 -16 244 -19 271 -9 65 -18 126 -27 165 -17 80 -20 92
-44 182 -3 10 -7 26 -9 35 -5 20 -17 64 -71 263 -21 74 -39 142 -40 150 -2 8
-22 87 -44 175 -22 88 -43 176 -46 195 -3 20 -7 46 -10 58 -2 12 4 31 14 43
17 21 27 22 153 24 75 2 141 6 147 9 6 4 20 9 31 11 40 8 141 66 236 136 112
82 182 120 235 126 l38 5 7 -49 c9 -57 9 -104 0 -198 -10 -97 -13 -119 -22
-167 -4 -24 -8 -50 -9 -58 -1 -8 -4 -33 -8 -55 -4 -22 -9 -53 -12 -70 -2 -16
-11 -73 -19 -125 -23 -141 -26 -163 -31 -206 -6 -55 -7 -355 -2 -379 3 -11 8
-49 12 -85 4 -36 9 -73 10 -82 2 -9 6 -41 9 -70 4 -29 9 -64 11 -78 3 -14 7
-36 9 -50 2 -14 12 -54 21 -90 9 -36 18 -69 19 -75 2 -8 19 -66 31 -105 1 -3
7 -18 13 -33 7 -16 12 -31 12 -35 0 -4 17 -41 39 -82 92 -180 151 -234 388
-359 48 -25 165 -71 181 -71 10 0 22 -4 27 -9 6 -6 21 -12 35 -15 14 -3 68
-17 120 -31 109 -29 108 -28 255 -55 255 -45 369 -53 431 -30 67 26 112 112
108 206 -7 153 -87 233 -249 248 -16 2 -43 6 -60 9 -16 4 -43 9 -60 12 -60 10
-74 14 -106 30 -41 22 -60 40 -90 90 -22 37 -24 50 -23 170 0 72 3 148 7 170
4 22 9 58 11 80 5 57 21 142 51 270 18 82 23 100 25 100 1 0 3 8 5 18 2 10 7
26 11 35 4 9 8 23 10 30 1 8 6 21 10 30 4 9 8 19 9 22 5 20 47 88 63 103 29
26 57 11 153 -85 81 -80 205 -178 227 -178 6 0 12 -3 14 -8 4 -10 209 -106
283 -132 33 -12 69 -25 80 -30 11 -5 74 -28 140 -50 106 -37 314 -111 355
-127 8 -4 17 -7 20 -8 3 -1 18 -7 33 -13 16 -7 30 -12 32 -12 11 0 147 -68
190 -96 94 -60 121 -107 101 -174 -5 -14 -31 -60 -58 -102 -28 -43 -56 -94
-63 -114 -12 -36 -14 -244 -2 -294 4 -14 8 -39 11 -57 2 -18 14 -52 26 -77 42
-83 106 -95 240 -43 46 17 147 73 160 88 3 3 13 10 23 16 33 18 126 115 162
168 35 53 106 189 109 209 1 6 5 16 9 23 16 26 79 238 91 308 3 17 10 53 15
80 46 245 28 489 -47 629 -56 103 -132 178 -381 375 -72 57 -131 108 -131 112
0 5 -8 9 -17 9 -9 0 -14 2 -11 5 3 3 -12 23 -33 44 -22 21 -39 43 -39 49 0 7
-4 12 -9 12 -13 0 -65 106 -81 165 -15 53 -19 243 -7 308 4 20 10 54 13 75 3
20 9 53 14 72 5 19 12 51 15 70 3 19 8 42 10 50 2 8 7 29 10 45 2 17 7 41 10
55 3 14 7 39 10 55 2 17 7 41 10 55 4 14 8 34 9 45 1 11 6 34 9 50 4 17 10 41
13 55 15 70 26 101 63 179 25 54 111 135 171 163 70 33 93 42 103 39 4 0 16 3
25 8 10 5 36 12 57 15 22 3 69 10 105 15 101 15 855 5 1045 -14 28 -3 79 -7
115 -10 36 -3 79 -7 95 -10 65 -9 160 -21 230 -29 135 -15 161 -18 166 -22 6
-3 166 -16 239 -18 25 -1 70 2 100 6 30 4 72 10 94 13 21 3 42 8 47 11 5 3 21
8 36 10 67 12 373 158 419 200 7 6 27 17 46 24 59 24 115 68 132 105 36 74 1
143 -120 241 -63 51 -270 261 -359 365 -55 63 -131 154 -137 164 -4 5 -18 24
-31 40 -61 79 -71 105 -73 205 -2 112 -16 149 -98 264 -57 79 -62 85 -111 141
-16 19 -48 56 -70 82 -22 25 -58 67 -80 93 -22 25 -56 66 -75 90 -19 24 -40
48 -45 54 -21 22 -161 202 -189 243 -29 44 -64 134 -72 188 -8 55 -35 115 -61
135 -35 27 -65 20 -198 -45 -166 -82 -255 -90 -455 -45 -25 5 -56 12 -70 14
-14 2 -52 11 -86 20 -33 8 -69 17 -80 19 -10 2 -26 7 -34 10 -17 6 -97 27
-120 31 -8 1 -26 5 -40 9 -14 4 -36 9 -50 12 -14 2 -56 11 -95 20 -38 9 -79
17 -90 19 -12 1 -25 5 -30 8 -6 3 -104 6 -220 7 -115 1 -217 3 -225 5 -42 9
-133 54 -160 79 -11 9 -22 17 -25 17 -6 0 -7 1 -74 58 -24 20 -53 45 -65 55
-23 20 -140 124 -165 147 -9 8 -41 31 -71 50 -30 19 -58 38 -61 43 -3 5 -9 8
-12 8 -4 0 -28 9 -54 20 -108 46 -254 60 -376 34z"/>
</g>
</svg>
