<?xml version="1.0" encoding="UTF-8"?>
<!DOCTYPE svg PUBLIC "-//W3C//DTD SVG 1.1//EN" "http://www.w3.org/Graphics/SVG/1.1/DTD/svg11.dtd">
<!-- Creator: CorelDRAW X7 -->
<svg xmlns="http://www.w3.org/2000/svg" xml:space="preserve" width="6.8843in" height="3.82635in" version="1.1" style="shape-rendering:geometricPrecision; text-rendering:geometricPrecision; image-rendering:optimizeQuality; fill-rule:evenodd; clip-rule:evenodd"
viewBox="0 0 6854 3809"
 xmlns:xlink="http://www.w3.org/1999/xlink">
 <defs>
  <style type="text/css">
   <![CDATA[
    .fil0 {fill:black}
   ]]>
  </style>
 </defs>
 <g id="Layer_x0020_1">
  <metadata id="CorelCorpID_0Corel-Layer"/>
  <path class="fil0" d="M4040 159c-197,0 -384,-25 -570,-40 -30,-3 -71,-10 -101,-12l-932 -98 -101 19c-124,15 -278,38 -386,72 -215,69 -408,196 -585,331 -299,229 -218,292 -363,440 -93,95 -194,201 -267,310 -64,95 -97,200 -122,336 -76,402 -61,371 -204,719 -22,51 -46,103 -70,155 -13,28 -24,53 -35,78 -13,28 -26,53 -38,82 -22,56 -47,101 -70,156 -10,24 -22,50 -34,78 -14,30 -23,53 -36,84l-75 157c-107,215 -30,357 90,554 41,67 56,88 147,105 101,19 237,18 347,18 73,0 193,-4 193,-73 0,-56 -38,-115 -87,-132 -24,-8 -41,-6 -73,-7 -13,0 -55,-5 -62,-10 -20,-14 -5,0 -13,-28 -17,-55 -23,-55 37,-120l606 -601c47,-37 107,-105 151,-149 37,-36 67,-86 98,-127 76,-99 266,112 323,167 19,18 31,24 50,43 292,290 464,916 653,1047 99,68 190,41 315,62 144,25 312,34 464,34 74,0 173,-31 173,-92 0,-51 -82,-79 -124,-96 -359,-149 -202,-221 -293,-583 -20,-77 -134,-476 -134,-536 0,-44 91,-24 132,-27 162,-12 221,-159 339,-159 16,68 12,63 6,139 -4,44 -13,98 -21,145 -7,43 -17,99 -23,143 -7,51 -16,95 -15,151 0,63 -6,86 3,149 7,54 11,95 19,147 17,117 69,322 169,401 152,121 362,165 557,194 39,6 108,16 147,4 82,-28 82,-160 29,-214 -82,-83 -294,13 -294,-197 0,-103 48,-445 126,-498 40,9 68,52 95,78 133,134 395,192 592,271 48,19 209,76 209,142 0,52 -79,115 -79,166 0,90 -7,282 107,255 77,-19 152,-66 200,-114 137,-137 230,-538 153,-720 -31,-73 -86,-120 -144,-169 -80,-67 -191,-134 -239,-231 -58,-118 -13,-267 10,-381 54,-266 26,-425 457,-425 310,0 451,8 754,49 186,26 276,23 443,-60 22,-11 36,-18 56,-30 19,-12 36,-22 54,-32 48,-25 100,-42 100,-99 0,-64 -106,-111 -172,-194 -19,-24 -41,-40 -62,-64l-83 -96c-218,-250 55,-102 -232,-431 -54,-61 -199,-230 -240,-298 -46,-80 -11,-231 -157,-142 -105,63 -167,54 -287,28 -100,-21 -338,-91 -426,-91 -186,0 -186,25 -323,-82l-67 -59c-107,-105 -195,-146 -283,-151l-42 0c-100,6 -205,52 -343,97 -102,34 -64,62 -97,62z"/>
 </g>
</svg>
