<?xml version="1.0" encoding="UTF-8" standalone="no"?>
<svg
   xmlns:dc="http://purl.org/dc/elements/1.1/"
   xmlns:cc="http://creativecommons.org/ns#"
   xmlns:rdf="http://www.w3.org/1999/02/22-rdf-syntax-ns#"
   xmlns:svg="http://www.w3.org/2000/svg"
   xmlns="http://www.w3.org/2000/svg"
   id="svg892"
   version="1.1"
   viewBox="0 0 56.396581 17.096318"
   height="64.616005"
   width="213.15244">
  <defs
     id="defs886">
    <filter
       height="1.0362459"
       y="-0.018122973"
       width="1.0357574"
       x="-0.017878685"
       id="filter6383"
       style="color-interpolation-filters:sRGB">
      <feGaussianBlur
         id="feGaussianBlur6385"
         stdDeviation="0.46738037" />
    </filter>
    <filter
       height="1.0868624"
       y="-0.043431245"
       width="1.022705"
       x="-0.011352514"
       id="filter1564"
       style="color-interpolation-filters:sRGB">
      <feGaussianBlur
         id="feGaussianBlur1566"
         stdDeviation="0.17524994" />
    </filter>
  </defs>
  <metadata
     id="metadata889">
    <rdf:RDF>
      <cc:Work
         rdf:about="">
        <dc:format>image/svg+xml</dc:format>
        <dc:type
           rdf:resource="http://purl.org/dc/dcmitype/StillImage" />
        <dc:title></dc:title>
      </cc:Work>
    </rdf:RDF>
  </metadata>
  <g
     transform="translate(-83.487657,-156.39641)"
     id="layer1">
    <path
       transform="matrix(0.26458333,0,0,0.26458333,83.487657,156.39641)"
       id="circle5645"
       d="M 32.492807,1.5997606 A 31.370501,31.370501 0 0 0 1.1217129,32.970855 31.370501,31.370501 0 0 0 25.393197,63.494292 c -2e-6,-0.0081 -1.1e-5,-0.01131 0,-0.01953 0.003,-2.089512 0,-4.179398 0,-6.380859 -0.739521,0.07559 -1.480285,0.154751 -2.222656,0.226562 -3.622273,0.35074 -6.780672,-0.574552 -9.224609,-3.40625 C 13.603847,53.51778 13.331801,53.059784 13.049447,52.615387 11.805208,50.65642 10.599339,48.671638 9.311166,46.74234 8.9124523,46.145364 8.2957535,45.694901 7.779916,45.175934 c -0.2716724,-0.27326 -0.5415574,-0.549621 -0.8613281,-0.875 0.8937902,-0.580838 1.7499743,-0.423817 2.5605469,-0.298828 2.0236992,0.311433 3.3929492,1.565901 4.4765622,3.228515 0.539343,0.82749 1.096434,1.672032 1.789063,2.365235 2.218178,2.220283 4.913302,2.936361 7.964844,2.24414 1.96831,-0.446589 1.586838,-0.239037 1.880859,-2.037109 0.196384,-1.200907 0.526067,-2.345748 1.179688,-3.382813 0.108359,-0.171968 0.198538,-0.355464 0.332031,-0.597656 -0.863717,-0.170456 -1.669061,-0.306473 -2.464844,-0.490234 -3.157493,-0.728051 -6.070868,-1.959432 -8.375,-4.326172 -2.441858,-2.508472 -3.76159,-5.513406 -3.853516,-9.039062 -0.07729,-2.962621 -0.05955,-5.915974 0.611329,-8.826172 0.430541,-1.867994 1.207757,-3.541694 2.574218,-4.929688 0.211729,-0.215055 0.336927,-0.724965 0.238282,-1.005859 -0.973501,-2.772208 -0.840942,-5.511282 0.05859,-8.2675788 0.154659,-0.4740661 0.31763,-0.5883576 0.791016,-0.4589844 1.736356,0.4746331 3.223145,1.3701269 4.462891,2.6542972 0.84602,0.876321 1.620725,1.822194 2.460937,2.775391 2.144821,-1.549531 4.681727,-1.603846 7.185547,-1.75 2.768258,-0.161386 5.539443,-0.119092 8.259766,0.470703 1.056442,0.229039 2.060904,0.697781 3,1.025391 1.103334,-1.04829 2.243436,-2.115466 3.365234,-3.201173 1.01311,-0.9805226 2.212768,-1.5915374 3.566406,-1.9531248 0.518136,-0.1383307 0.781548,-0.015277 0.957031,0.4902344 0.931163,2.6828984 1.087076,5.3652144 0.04102,8.0546874 -0.152693,0.392315 -0.257051,0.760928 0.103516,1.105469 1.830047,1.750073 2.740119,3.954285 2.933593,6.423828 0.204473,2.607723 0.450581,5.237035 0.322266,7.839844 -0.23811,4.830085 -2.636573,8.457442 -6.802734,10.896485 -2.233573,1.307678 -4.671655,2.024655 -7.21875,2.402343 -0.145928,0.02268 -0.293712,0.0385 -0.4375,0.06836 -0.05813,0.01134 -0.108437,0.06024 -0.210938,0.121093 1.616001,2.340813 1.699578,5.009194 1.673828,7.714844 -0.03097,3.233702 -0.0077,6.467246 -0.0039,9.701172 A 31.370501,31.370501 0 0 0 63.861947,32.970855 31.370501,31.370501 0 0 0 32.492807,1.5997606 Z"
       style="display:inline;opacity:0.9;fill:#000000;fill-opacity:1;stroke:none;stroke-width:7.91773701;stroke-linecap:round;stroke-miterlimit:4;stroke-dasharray:none;stroke-opacity:0.99435024;filter:url(#filter6383)" />
    <path
       style="display:inline;opacity:1;fill:#0064ff;fill-opacity:1;stroke:none;stroke-width:2.09490132;stroke-linecap:round;stroke-miterlimit:4;stroke-dasharray:none;stroke-opacity:0.99435024"
       d="m 91.873117,156.39641 a 8.3001117,8.3001117 0 0 0 -8.30027,8.30027 8.3001117,8.3001117 0 0 0 6.42183,8.07599 c 0,-0.002 0,-0.003 0,-0.005 8e-4,-0.55285 0,-1.1058 0,-1.68827 -0.19566,0.02 -0.39166,0.041 -0.58808,0.06 -0.95839,0.0928 -1.79405,-0.15202 -2.44067,-0.90124 -0.0905,-0.10489 -0.16249,-0.22606 -0.2372,-0.34364 -0.3292,-0.51831 -0.64826,-1.04345 -0.98909,-1.55391 -0.10549,-0.15795 -0.26866,-0.27714 -0.40514,-0.41445 -0.0719,-0.0723 -0.14329,-0.14542 -0.22789,-0.23151 0.23648,-0.15368 0.46301,-0.11213 0.67748,-0.0791 0.53543,0.0824 0.89771,0.41431 1.18442,0.85421 0.1427,0.21894 0.2901,0.44239 0.47336,0.6258 0.58689,0.58745 1.29997,0.77692 2.10736,0.59377 0.52078,-0.11816 0.41985,-0.0633 0.49764,-0.53899 0.052,-0.31774 0.13919,-0.62065 0.31213,-0.89504 0.0287,-0.0455 0.0525,-0.0941 0.0879,-0.15813 -0.22852,-0.0451 -0.44161,-0.0811 -0.65216,-0.12968 -0.83542,-0.19263 -1.60625,-0.51843 -2.21588,-1.14463 -0.64608,-0.6637 -0.99526,-1.45876 -1.01958,-2.39159 -0.0204,-0.78386 -0.0157,-1.56527 0.16175,-2.33526 0.11391,-0.49424 0.31955,-0.93707 0.68109,-1.30431 0.056,-0.0569 0.0891,-0.19181 0.063,-0.26613 -0.25757,-0.73348 -0.2225,-1.4582 0.0155,-2.18747 0.0409,-0.12543 0.084,-0.15567 0.20929,-0.12144 0.45941,0.12558 0.85279,0.36252 1.18081,0.70229 0.22384,0.23186 0.42881,0.48212 0.65112,0.73432 0.56748,-0.40998 1.23871,-0.42435 1.90118,-0.46302 0.73243,-0.0427 1.46564,-0.0315 2.18539,0.12454 0.27952,0.0606 0.54528,0.18462 0.79375,0.2713 0.29193,-0.27736 0.59358,-0.55972 0.89039,-0.84698 0.26805,-0.25943 0.58546,-0.42109 0.94361,-0.51676 0.13709,-0.0366 0.20678,-0.004 0.25321,0.12971 0.24637,0.70985 0.28763,1.41954 0.0108,2.13113 -0.0404,0.1038 -0.068,0.20133 0.0274,0.29249 0.4842,0.46304 0.72499,1.04624 0.77618,1.69964 0.0541,0.68996 0.11922,1.38563 0.0853,2.07429 -0.063,1.27796 -0.69759,2.2377 -1.79989,2.88303 -0.59096,0.34599 -1.23604,0.53569 -1.90996,0.63562 -0.0386,0.006 -0.0777,0.0102 -0.11575,0.0181 -0.0154,0.003 -0.0287,0.0159 -0.0558,0.032 0.42757,0.61934 0.44968,1.32535 0.44287,2.04122 -0.008,0.85558 -0.002,1.71112 -0.001,2.56677 a 8.3001117,8.3001117 0 0 0 6.223353,-8.02949 8.3001117,8.3001117 0 0 0 -8.299753,-8.30027 z"
       id="path6381" />
    <text
       id="text1480"
       y="169.70338"
       x="101.13334"
       style="font-style:normal;font-weight:normal;font-size:12.80399132px;line-height:1.25;font-family:sans-serif;letter-spacing:0px;word-spacing:0px;opacity:0.9;fill:#000000;fill-opacity:1;stroke:none;stroke-width:0.32009977;filter:url(#filter1564)"
       xml:space="preserve"><tspan
         style="font-style:normal;font-variant:normal;font-weight:bold;font-stretch:normal;font-size:12.80399132px;font-family:sans-serif;-inkscape-font-specification:'sans-serif, Bold';font-variant-ligatures:normal;font-variant-caps:normal;font-variant-numeric:normal;font-feature-settings:normal;text-align:start;writing-mode:lr-tb;text-anchor:start;fill:#000000;fill-opacity:1;stroke-width:0.32009977"
         y="169.70338"
         x="101.13334"
         id="tspan1478">REPO</tspan></text>
    <text
       id="text1480-8"
       y="169.38029"
       x="100.81029"
       style="font-style:normal;font-weight:normal;font-size:12.80399132px;line-height:1.25;font-family:sans-serif;letter-spacing:0px;word-spacing:0px;display:inline;fill:#0064ff;fill-opacity:1;stroke:none;stroke-width:0.32009977"
       xml:space="preserve"><tspan
         style="font-style:normal;font-variant:normal;font-weight:bold;font-stretch:normal;font-size:12.80399132px;font-family:sans-serif;-inkscape-font-specification:'sans-serif, Bold';font-variant-ligatures:normal;font-variant-caps:normal;font-variant-numeric:normal;font-feature-settings:normal;text-align:start;writing-mode:lr-tb;text-anchor:start;fill:#0064ff;fill-opacity:1;stroke-width:0.32009977"
         y="169.38029"
         x="100.81029"
         id="tspan1478-1">REPO</tspan></text>
  </g>
</svg>
