<?xml version="1.0" encoding="UTF-8" standalone="no"?>
<svg
   xmlns:dc="http://purl.org/dc/elements/1.1/"
   xmlns:cc="http://creativecommons.org/ns#"
   xmlns:rdf="http://www.w3.org/1999/02/22-rdf-syntax-ns#"
   xmlns:svg="http://www.w3.org/2000/svg"
   xmlns="http://www.w3.org/2000/svg"
   id="svg5762"
   version="1.1"
   viewBox="0 0 16.600223 16.600224"
   height="62.741001"
   width="62.741001">
  <defs
     id="defs5756">
    <filter
       height="1.0362459"
       y="-0.018122973"
       width="1.0357574"
       x="-0.017878685"
       id="filter6383"
       style="color-interpolation-filters:sRGB">
      <feGaussianBlur
         id="feGaussianBlur6385"
         stdDeviation="0.46738037" />
    </filter>
  </defs>
  <metadata
     id="metadata5759">
    <rdf:RDF>
      <cc:Work
         rdf:about="">
        <dc:format>image/svg+xml</dc:format>
        <dc:type
           rdf:resource="http://purl.org/dc/dcmitype/StillImage" />
        <dc:title></dc:title>
      </cc:Work>
    </rdf:RDF>
  </metadata>
  <g
     transform="translate(-87.705839,-129.94989)"
     id="layer1">
    <path
       id="circle5645"
       transform="matrix(0.26458334,0,0,0.26458334,87.91743,130.37316)"
       d="M 31.371094,0 A 31.370501,31.370501 0 0 0 0,31.371094 31.370501,31.370501 0 0 0 24.271484,61.894531 c -2e-6,-0.0081 -1.1e-5,-0.01131 0,-0.01953 0.003,-2.089512 0,-4.179398 0,-6.380859 -0.739521,0.07559 -1.480285,0.154751 -2.222656,0.226562 -3.622273,0.35074 -6.780672,-0.574552 -9.224609,-3.40625 -0.342085,-0.396435 -0.614131,-0.854431 -0.896485,-1.298828 -1.244239,-1.958967 -2.4501083,-3.943749 -3.7382809,-5.873047 -0.3987137,-0.596976 -1.0154125,-1.047439 -1.53125,-1.566406 -0.2716724,-0.27326 -0.5415574,-0.549621 -0.8613281,-0.875 0.8937902,-0.580838 1.7499743,-0.423817 2.5605469,-0.298828 2.0236991,0.311433 3.3929491,1.565901 4.4765621,3.228515 0.539343,0.82749 1.096434,1.672032 1.789063,2.365235 2.218178,2.220283 4.913302,2.936361 7.964844,2.24414 1.96831,-0.446589 1.586838,-0.239037 1.880859,-2.037109 0.196384,-1.200907 0.526067,-2.345748 1.179688,-3.382813 0.108359,-0.171968 0.198538,-0.355464 0.332031,-0.597656 -0.863717,-0.170456 -1.669061,-0.306473 -2.464844,-0.490234 -3.157493,-0.728051 -6.070868,-1.959432 -8.375,-4.326172 -2.441858,-2.508472 -3.76159,-5.513406 -3.853516,-9.039062 -0.07729,-2.962621 -0.05955,-5.915974 0.611329,-8.826172 0.430541,-1.867994 1.207757,-3.541694 2.574218,-4.929688 0.211729,-0.215055 0.336927,-0.724965 0.238282,-1.005859 -0.973501,-2.772208 -0.840942,-5.511282 0.05859,-8.2675784 0.154659,-0.4740661 0.31763,-0.5883576 0.791016,-0.4589844 1.736356,0.4746331 3.223145,1.3701269 4.462891,2.6542969 0.84602,0.8763209 1.620725,1.8221939 2.460937,2.7753909 2.144821,-1.549531 4.681727,-1.603846 7.185547,-1.75 2.768258,-0.161386 5.539443,-0.119092 8.259766,0.470703 1.056442,0.229039 2.060904,0.697781 3,1.025391 1.103334,-1.04829 2.243436,-2.1154653 3.365234,-3.2011724 1.01311,-0.9805228 2.212768,-1.5915376 3.566406,-1.953125 0.518136,-0.1383307 0.781548,-0.015277 0.957031,0.4902344 0.931163,2.682898 1.087076,5.365214 0.04102,8.054687 -0.152693,0.392315 -0.257051,0.760928 0.103516,1.105469 1.830047,1.750073 2.740119,3.954285 2.933593,6.423828 0.204473,2.607723 0.450581,5.237035 0.322266,7.839844 -0.23811,4.830085 -2.636573,8.457442 -6.802734,10.896485 -2.233573,1.307678 -4.671655,2.024655 -7.21875,2.402343 -0.145928,0.02268 -0.293712,0.0385 -0.4375,0.06836 -0.05813,0.01134 -0.108437,0.06024 -0.210938,0.121093 1.616001,2.340813 1.699578,5.009194 1.673828,7.714844 -0.03097,3.233702 -0.0077,6.467246 -0.0039,9.701172 A 31.370501,31.370501 0 0 0 62.740234,31.371094 31.370501,31.370501 0 0 0 31.371094,0 Z"
       style="display:inline;opacity:0.9;fill:#000000;fill-opacity:1;stroke:none;stroke-width:7.91773701;stroke-linecap:round;stroke-miterlimit:4;stroke-dasharray:none;stroke-opacity:0.99435024;filter:url(#filter6383)" />
    <path
       style="clip-rule:evenodd;display:none;fill-rule:evenodd;stroke-width:0.01449476"
       d="m 97.640622,141.67163 c 0.427567,0.61934 0.449483,1.32537 0.44267,2.04124 -0.0083,0.86678 -0.0016,1.73363 -7.24e-4,2.60047 3.19e-4,0.2784 -0.0065,0.286 -0.27685,0.28597 -1.134302,-1.7e-4 -2.268604,0 -3.402921,-1.5e-4 -0.252991,0 -0.27569,-0.0242 -0.275342,-0.27812 7.97e-4,-0.55285 2.61e-4,-1.10569 2.61e-4,-1.68816 -0.195665,0.02 -0.391909,0.041 -0.588328,0.06 -0.958393,0.0928 -1.793698,-0.15215 -2.440323,-0.90137 -0.09051,-0.10489 -0.162762,-0.22625 -0.237468,-0.34383 -0.329205,-0.51831 -0.648032,-1.04345 -0.988861,-1.55391 -0.105493,-0.15795 -0.268777,-0.27726 -0.405259,-0.41457 -0.07188,-0.0723 -0.143064,-0.14532 -0.22767,-0.23141 0.236482,-0.15368 0.462963,-0.11187 0.677427,-0.0788 0.535437,0.0824 0.897429,0.41406 1.184135,0.85396 0.142701,0.21894 0.290359,0.44224 0.473617,0.62565 0.586893,0.58745 1.299716,0.777 2.107103,0.59385 0.520782,-0.11816 0.419783,-0.0633 0.497576,-0.53904 0.05196,-0.31774 0.139585,-0.62036 0.312522,-0.89475 0.02867,-0.0455 0.05243,-0.0941 0.08775,-0.15818 -0.228525,-0.0451 -0.441945,-0.0812 -0.652496,-0.12982 -0.83542,-0.19263 -1.605759,-0.5183 -2.215394,-1.1445 -0.646075,-0.6637 -0.995761,-1.45855 -1.020083,-2.39138 -0.02045,-0.78386 -0.01564,-1.56539 0.161863,-2.33538 0.113914,-0.49424 0.319885,-0.93707 0.681428,-1.30431 0.05602,-0.0569 0.08882,-0.19179 0.06272,-0.26611 -0.257572,-0.73348 -0.222262,-1.45855 0.01574,-2.18782 0.04092,-0.12543 0.08404,-0.15565 0.20929,-0.12142 0.459411,0.12558 0.852683,0.36263 1.180699,0.7024 0.223843,0.23186 0.428712,0.48214 0.651018,0.73434 0.567484,-0.40998 1.23891,-0.42437 1.901379,-0.46304 0.732435,-0.0427 1.465478,-0.0312 2.18523,0.12485 0.279517,0.0606 0.54538,0.18423 0.793849,0.27091 0.291924,-0.27736 0.59343,-0.55971 0.890239,-0.84697 0.268052,-0.25943 0.585531,-0.42103 0.943681,-0.5167 0.13709,-0.0366 0.20665,-0.004 0.25308,0.12975 0.24637,0.70985 0.28797,1.41941 0.0112,2.131 -0.0404,0.1038 -0.0681,0.20146 0.0273,0.29262 0.4842,0.46304 0.72509,1.0461 0.77628,1.6995 0.0541,0.68996 0.11895,1.38578 0.085,2.07444 -0.063,1.27796 -0.69742,2.23762 -1.799717,2.88295 -0.590966,0.34599 -1.236186,0.53574 -1.910105,0.63567 -0.03861,0.006 -0.07761,0.01 -0.115654,0.0179 -0.01538,0.003 -0.02874,0.0162 -0.05586,0.0323 z"
       id="path6376" />
    <circle
       r="8.3001118"
       cy="138.25"
       cx="96.005951"
       id="circle6378"
       style="display:none;opacity:1;fill:#0064ff;fill-opacity:1;stroke:none;stroke-width:2.09490132;stroke-linecap:round;stroke-miterlimit:4;stroke-dasharray:none;stroke-opacity:0.99435024" />
    <path
       style="display:inline;opacity:1;fill:#0064ff;fill-opacity:1;stroke:none;stroke-width:7.91773701;stroke-linecap:round;stroke-miterlimit:4;stroke-dasharray:none;stroke-opacity:0.99435024"
       d="M 31.371094,0 A 31.370501,31.370501 0 0 0 0,31.371094 31.370501,31.370501 0 0 0 24.271484,61.894531 c -2e-6,-0.0081 -1.1e-5,-0.01131 0,-0.01953 0.003,-2.089512 0,-4.179398 0,-6.380859 -0.739521,0.07559 -1.480285,0.154751 -2.222656,0.226562 -3.622273,0.35074 -6.780672,-0.574552 -9.224609,-3.40625 -0.342085,-0.396435 -0.614131,-0.854431 -0.896485,-1.298828 -1.244239,-1.958967 -2.4501083,-3.943749 -3.7382809,-5.873047 -0.3987137,-0.596976 -1.0154125,-1.047439 -1.53125,-1.566406 -0.2716724,-0.27326 -0.5415574,-0.549621 -0.8613281,-0.875 0.8937902,-0.580838 1.7499743,-0.423817 2.5605469,-0.298828 2.0236991,0.311433 3.3929491,1.565901 4.4765621,3.228515 0.539343,0.82749 1.096434,1.672032 1.789063,2.365235 2.218178,2.220283 4.913302,2.936361 7.964844,2.24414 1.96831,-0.446589 1.586838,-0.239037 1.880859,-2.037109 0.196384,-1.200907 0.526067,-2.345748 1.179688,-3.382813 0.108359,-0.171968 0.198538,-0.355464 0.332031,-0.597656 -0.863717,-0.170456 -1.669061,-0.306473 -2.464844,-0.490234 -3.157493,-0.728051 -6.070868,-1.959432 -8.375,-4.326172 -2.441858,-2.508472 -3.76159,-5.513406 -3.853516,-9.039062 -0.07729,-2.962621 -0.05955,-5.915974 0.611329,-8.826172 0.430541,-1.867994 1.207757,-3.541694 2.574218,-4.929688 0.211729,-0.215055 0.336927,-0.724965 0.238282,-1.005859 -0.973501,-2.772208 -0.840942,-5.511282 0.05859,-8.2675784 0.154659,-0.4740661 0.31763,-0.5883576 0.791016,-0.4589844 1.736356,0.4746331 3.223145,1.3701269 4.462891,2.6542969 0.84602,0.8763209 1.620725,1.8221939 2.460937,2.7753909 2.144821,-1.549531 4.681727,-1.603846 7.185547,-1.75 2.768258,-0.161386 5.539443,-0.119092 8.259766,0.470703 1.056442,0.229039 2.060904,0.697781 3,1.025391 1.103334,-1.04829 2.243436,-2.1154653 3.365234,-3.2011724 1.01311,-0.9805228 2.212768,-1.5915376 3.566406,-1.953125 0.518136,-0.1383307 0.781548,-0.015277 0.957031,0.4902344 0.931163,2.682898 1.087076,5.365214 0.04102,8.054687 -0.152693,0.392315 -0.257051,0.760928 0.103516,1.105469 1.830047,1.750073 2.740119,3.954285 2.933593,6.423828 0.204473,2.607723 0.450581,5.237035 0.322266,7.839844 -0.23811,4.830085 -2.636573,8.457442 -6.802734,10.896485 -2.233573,1.307678 -4.671655,2.024655 -7.21875,2.402343 -0.145928,0.02268 -0.293712,0.0385 -0.4375,0.06836 -0.05813,0.01134 -0.108437,0.06024 -0.210938,0.121093 1.616001,2.340813 1.699578,5.009194 1.673828,7.714844 -0.03097,3.233702 -0.0077,6.467246 -0.0039,9.701172 A 31.370501,31.370501 0 0 0 62.740234,31.371094 31.370501,31.370501 0 0 0 31.371094,0 Z"
       transform="matrix(0.26458334,0,0,0.26458334,87.705839,129.94989)"
       id="path6381" />
  </g>
</svg>
