<?xml version="1.0" encoding="UTF-8" standalone="no"?>
<svg
   xmlns:dc="http://purl.org/dc/elements/1.1/"
   xmlns:cc="http://creativecommons.org/ns#"
   xmlns:rdf="http://www.w3.org/1999/02/22-rdf-syntax-ns#"
   xmlns:svg="http://www.w3.org/2000/svg"
   xmlns="http://www.w3.org/2000/svg"
   id="svg8"
   version="1.1"
   viewBox="0 0 17.295756 17.348522"
   height="65.569214"
   width="65.369789">
  <defs
     id="defs2">
    <clipPath
       id="clipPath1333"
       clipPathUnits="userSpaceOnUse">
      <g
         id="use1335">
        <g
           id="g1343"
           style="stroke:#dedede;stroke-opacity:1">
          <path
             id="path1337"
             d="M 4.1787269,284.93818 H 15.234529"
             style="fill:none;stroke:#dedede;stroke-width:1.05833328;stroke-linecap:round;stroke-linejoin:miter;stroke-miterlimit:4;stroke-dasharray:none;stroke-opacity:1" />
          <path
             id="path1339"
             d="M 4.1787269,287.61087 H 15.234529"
             style="fill:none;stroke:#dedede;stroke-width:1.05833328;stroke-linecap:round;stroke-linejoin:miter;stroke-miterlimit:4;stroke-dasharray:none;stroke-opacity:1" />
          <path
             id="path1341"
             d="M 4.1787269,290.28356 H 15.234529"
             style="fill:none;stroke:#dedede;stroke-width:1.05833328;stroke-linecap:round;stroke-linejoin:miter;stroke-miterlimit:4;stroke-dasharray:none;stroke-opacity:1" />
        </g>
      </g>
    </clipPath>
    <clipPath
       id="clipPath5187"
       clipPathUnits="userSpaceOnUse">
      <g
         style="fill:#ff0000;fill-opacity:1"
         transform="translate(-6.3791552,-3.9551468)"
         id="g5195">
        <path
           style="opacity:0.48399999;fill:#ff0000;fill-opacity:1;stroke:none;stroke-width:1.36286521;stroke-linecap:round;stroke-miterlimit:4;stroke-dasharray:none;stroke-opacity:0.99435024"
           d="m 10.575768,288.37416 a 0.52618372,0.52618372 0 0 0 -0.526066,0.52606 0.52618372,0.52618372 0 0 0 0.526066,0.52607 0.52618372,0.52618372 0 0 0 0.0031,0 h 11.025168 v -5.3e-4 a 0.52618372,0.52618372 0 0 0 0.517798,-0.52555 0.52618372,0.52618372 0 0 0 -0.517798,-0.52555 v -5.3e-4 H 10.578869 a 0.52618372,0.52618372 0 0 0 -0.0031,0 z"
           id="path5189" />
        <path
           style="opacity:0.48399999;fill:#ff0000;fill-opacity:1;stroke:none;stroke-width:1.36286521;stroke-linecap:round;stroke-miterlimit:4;stroke-dasharray:none;stroke-opacity:0.99435024"
           d="m 10.575768,293.70578 a 0.52618372,0.52618372 0 0 0 -0.526066,0.52606 0.52618372,0.52618372 0 0 0 0.526066,0.52607 0.52618372,0.52618372 0 0 0 0.0031,0 h 11.025168 v -5.3e-4 a 0.52618372,0.52618372 0 0 0 0.517798,-0.52555 0.52618372,0.52618372 0 0 0 -0.517798,-0.52555 v -5.3e-4 H 10.578869 a 0.52618372,0.52618372 0 0 0 -0.0031,0 z"
           id="path5191" />
        <path
           style="opacity:0.48399999;fill:#ff0000;fill-opacity:1;stroke:none;stroke-width:1.36286521;stroke-linecap:round;stroke-miterlimit:4;stroke-dasharray:none;stroke-opacity:0.99435024"
           d="m 10.575768,291.03997 a 0.52618372,0.52618372 0 0 0 -0.526066,0.52606 0.52618372,0.52618372 0 0 0 0.526066,0.52607 0.52618372,0.52618372 0 0 0 0.0031,0 h 11.025168 v -5.3e-4 a 0.52618372,0.52618372 0 0 0 0.517798,-0.52555 0.52618372,0.52618372 0 0 0 -0.517798,-0.52555 v -5.3e-4 H 10.578869 a 0.52618372,0.52618372 0 0 0 -0.0031,0 z"
           id="path5193" />
      </g>
    </clipPath>
    <filter
       height="1.036"
       y="-0.017999997"
       width="1.036"
       x="-0.018000001"
       id="filter5344"
       style="color-interpolation-filters:sRGB">
      <feGaussianBlur
         id="feGaussianBlur5346"
         stdDeviation="0.12898439" />
    </filter>
    <filter
       height="1.036"
       y="-0.017999999"
       width="1.036"
       x="-0.018000001"
       id="filter5355"
       style="color-interpolation-filters:sRGB">
      <feGaussianBlur
         id="feGaussianBlur5357"
         stdDeviation="0.12898439" />
    </filter>
    <filter
       height="1.036"
       y="-0.017999999"
       width="1.036"
       x="-0.017999999"
       id="filter5467"
       style="color-interpolation-filters:sRGB">
      <feGaussianBlur
         id="feGaussianBlur5469"
         stdDeviation="0.47055176" />
    </filter>
    <filter
       height="1.036"
       y="-0.017999999"
       width="1.036"
       x="-0.017999999"
       id="filter5655"
       style="color-interpolation-filters:sRGB">
      <feGaussianBlur
         id="feGaussianBlur5657"
         stdDeviation="0.47055176" />
    </filter>
  </defs>
  <metadata
     id="metadata5">
    <rdf:RDF>
      <cc:Work
         rdf:about="">
        <dc:format>image/svg+xml</dc:format>
        <dc:type
           rdf:resource="http://purl.org/dc/dcmitype/StillImage" />
        <dc:title></dc:title>
      </cc:Work>
    </rdf:RDF>
  </metadata>
  <g
     style="display:inline"
     transform="translate(-1.0994392,-279.62535)"
     id="layer1">
    <g
       style="display:none;stroke:#dedede;stroke-opacity:1"
       id="g1304">
      <path
         style="fill:none;stroke:#dedede;stroke-width:1.05833328;stroke-linecap:round;stroke-linejoin:miter;stroke-miterlimit:4;stroke-dasharray:none;stroke-opacity:1"
         d="M 4.1787269,284.93818 H 15.234529"
         id="path851-5" />
      <path
         style="fill:none;stroke:#dedede;stroke-width:1.05833328;stroke-linecap:round;stroke-linejoin:miter;stroke-miterlimit:4;stroke-dasharray:none;stroke-opacity:1"
         d="M 4.1787269,287.61087 H 15.234529"
         id="path851-3" />
      <path
         style="fill:none;stroke:#dedede;stroke-width:1.05833328;stroke-linecap:round;stroke-linejoin:miter;stroke-miterlimit:4;stroke-dasharray:none;stroke-opacity:1"
         d="M 4.1787269,290.28356 H 15.234529"
         id="path851-56" />
    </g>
    <path
       clip-path="url(#clipPath5187)"
       id="circle1309"
       d="m 9.7500182,279.11123 a 8.598958,8.598958 0 0 0 -8.5989581,8.59896 8.598958,8.598958 0 0 0 8.5989581,8.59896 8.598958,8.598958 0 0 0 8.5989588,-8.59896 8.598958,8.598958 0 0 0 -8.5989588,-8.59896 z m -5.5097409,5.40691 a 0.52618372,0.52618372 0 0 1 0.0031,0 H 15.268545 v 5.3e-4 a 0.52618372,0.52618372 0 0 1 0.517798,0.52555 0.52618372,0.52618372 0 0 1 -0.517798,0.52555 v 5.3e-4 H 4.2433777 a 0.52618372,0.52618372 0 0 1 -0.0031,0 0.52618372,0.52618372 0 0 1 -0.5260662,-0.52607 0.52618372,0.52618372 0 0 1 0.5260662,-0.52607 z m 0,2.66599 a 0.52618372,0.52618372 0 0 1 0.0031,0 H 15.268545 v 5.2e-4 a 0.52618372,0.52618372 0 0 1 0.517798,0.52554 0.52618372,0.52618372 0 0 1 -0.517798,0.52555 v 5.3e-4 H 4.2433777 a 0.52618372,0.52618372 0 0 1 -0.0031,0 0.52618372,0.52618372 0 0 1 -0.5260657,-0.52608 0.52618372,0.52618372 0 0 1 0.5260653,-0.52606 z m 0,2.66598 a 0.52618372,0.52618372 0 0 1 0.0031,0 H 15.268545 v 5.3e-4 a 0.52618372,0.52618372 0 0 1 0.517798,0.52555 0.52618372,0.52618372 0 0 1 -0.517798,0.52555 v 5.3e-4 H 4.2433777 a 0.52618372,0.52618372 0 0 1 -0.0031,0 0.52618372,0.52618372 0 0 1 -0.5260662,-0.52607 0.52618372,0.52618372 0 0 1 0.5260662,-0.52606 z"
       style="display:none;opacity:1;fill:#000000;fill-opacity:1;stroke:#0064ff;stroke-width:0;stroke-miterlimit:4;stroke-dasharray:none;stroke-opacity:0.99435024;filter:url(#filter5344)" />
    <g
       style="display:none"
       id="g5214">
      <path
         style="opacity:0.48399999;fill:#ff0000;fill-opacity:1;stroke:none;stroke-width:1.36286521;stroke-linecap:round;stroke-miterlimit:4;stroke-dasharray:none;stroke-opacity:0.99435024"
         d="m 4.1966128,284.41901 a 0.52618372,0.52618372 0 0 0 -0.526066,0.52606 0.52618372,0.52618372 0 0 0 0.526066,0.52607 0.52618372,0.52618372 0 0 0 0.0031,0 H 15.224881 v -5.3e-4 a 0.52618372,0.52618372 0 0 0 0.517798,-0.52555 0.52618372,0.52618372 0 0 0 -0.517798,-0.52555 v -5.3e-4 H 4.1997138 a 0.52618372,0.52618372 0 0 0 -0.0031,0 z"
         id="path5208" />
      <path
         style="opacity:0.48399999;fill:#ff0000;fill-opacity:1;stroke:none;stroke-width:1.36286521;stroke-linecap:round;stroke-miterlimit:4;stroke-dasharray:none;stroke-opacity:0.99435024"
         d="m 4.1966128,289.75063 a 0.52618372,0.52618372 0 0 0 -0.526066,0.52606 0.52618372,0.52618372 0 0 0 0.526066,0.52607 0.52618372,0.52618372 0 0 0 0.0031,0 H 15.224881 v -5.3e-4 a 0.52618372,0.52618372 0 0 0 0.517798,-0.52555 0.52618372,0.52618372 0 0 0 -0.517798,-0.52555 v -5.3e-4 H 4.1997138 a 0.52618372,0.52618372 0 0 0 -0.0031,0 z"
         id="path5210" />
      <path
         style="opacity:0.48399999;fill:#ff0000;fill-opacity:1;stroke:none;stroke-width:1.36286521;stroke-linecap:round;stroke-miterlimit:4;stroke-dasharray:none;stroke-opacity:0.99435024"
         d="m 4.1966128,287.08482 a 0.52618372,0.52618372 0 0 0 -0.526066,0.52606 0.52618372,0.52618372 0 0 0 0.526066,0.52607 0.52618372,0.52618372 0 0 0 0.0031,0 H 15.224881 v -5.3e-4 a 0.52618372,0.52618372 0 0 0 0.517798,-0.52555 0.52618372,0.52618372 0 0 0 -0.517798,-0.52555 v -5.3e-4 H 4.1997138 a 0.52618372,0.52618372 0 0 0 -0.0031,0 z"
         id="path5212" />
    </g>
    <path
       transform="matrix(0.96525091,0,0,0.96525091,0.03019565,10.308124)"
       id="path823"
       d="m 9.7774829,279.13699 a 8.598958,8.598958 0 0 0 -8.5989581,8.59896 8.598958,8.598958 0 0 0 8.5989581,8.59896 8.598958,8.598958 0 0 0 8.5989591,-8.59896 8.598958,8.598958 0 0 0 -8.5989591,-8.59896 z M 4.267225,284.5439 h 5.291e-4 a 0.52618372,0.52618372 0 0 1 0.00259,0 H 15.296031 v 5.3e-4 a 0.52618372,0.52618372 0 0 1 0.517798,0.52555 0.52618372,0.52618372 0 0 1 -0.517798,0.52555 v 5.2e-4 H 4.2703256 a 0.52618372,0.52618372 0 0 1 -0.0031,0 0.52618372,0.52618372 0 0 1 -0.526066,-0.52606 0.52618372,0.52618372 0 0 1 0.526066,-0.52607 z m 0,2.66599 h 5.291e-4 a 0.52618372,0.52618372 0 0 1 0.00259,0 H 15.296031 v 5.2e-4 a 0.52618372,0.52618372 0 0 1 0.517777,0.52554 0.52618372,0.52618372 0 0 1 -0.517798,0.52555 v 5.3e-4 H 4.2703256 a 0.52618372,0.52618372 0 0 1 -0.0031,0 0.52618372,0.52618372 0 0 1 -0.5260657,-0.52608 0.52618372,0.52618372 0 0 1 0.5260651,-0.52606 z m 0,2.66598 h 5.291e-4 a 0.52618372,0.52618372 0 0 1 0.00259,0 H 15.296031 v 5.3e-4 a 0.52618372,0.52618372 0 0 1 0.517798,0.52555 0.52618372,0.52618372 0 0 1 -0.517798,0.52555 v 5.3e-4 H 4.2703256 a 0.52618372,0.52618372 0 0 1 -0.0031,0 0.52618372,0.52618372 0 0 1 -0.526066,-0.52607 0.52618372,0.52618372 0 0 1 0.526066,-0.52606 z"
       style="display:none;opacity:0.93800001;fill:#000000;fill-opacity:1;stroke:#0064ff;stroke-width:0;stroke-miterlimit:4;stroke-dasharray:none;stroke-opacity:1;filter:url(#filter5355)" />
    <path
       style="display:none;opacity:1;fill:#0064ff;fill-opacity:1;stroke:#0064ff;stroke-width:0;stroke-miterlimit:4;stroke-dasharray:none;stroke-opacity:1"
       d="m 9.3995124,279.62514 a 8.3001521,8.3001521 0 0 0 -8.3001521,8.30015 8.3001521,8.3001521 0 0 0 8.3001521,8.30016 8.3001521,8.3001521 0 0 0 8.3001526,-8.30016 8.3001521,8.3001521 0 0 0 -8.3001526,-8.30015 z m -5.3187815,5.21901 h 5.109e-4 a 0.50789932,0.50789932 0 0 1 0.0025,0 H 14.726295 v 5.1e-4 a 0.50789932,0.50789932 0 0 1 0.499805,0.50729 0.50789932,0.50789932 0 0 1 -0.499805,0.50729 v 5.1e-4 H 4.0837238 a 0.50789932,0.50789932 0 0 1 -0.00299,0 0.50789932,0.50789932 0 0 1 -0.5077856,-0.50778 0.50789932,0.50789932 0 0 1 0.5077856,-0.50779 z m 0,2.57335 h 5.109e-4 a 0.50789932,0.50789932 0 0 1 0.0025,0 H 14.726295 v 5.1e-4 a 0.50789932,0.50789932 0 0 1 0.499785,0.50728 0.50789932,0.50789932 0 0 1 -0.499805,0.50729 v 5.1e-4 H 4.0837238 a 0.50789932,0.50789932 0 0 1 -0.00299,0 0.50789932,0.50789932 0 0 1 -0.5077854,-0.5078 0.50789932,0.50789932 0 0 1 0.5077848,-0.50779 z m 0,2.57335 h 5.109e-4 a 0.50789932,0.50789932 0 0 1 0.0025,0 H 14.726295 v 5.1e-4 a 0.50789932,0.50789932 0 0 1 0.499805,0.50729 0.50789932,0.50789932 0 0 1 -0.499805,0.50729 v 5.1e-4 H 4.0837238 a 0.50789932,0.50789932 0 0 1 -0.00299,0 0.50789932,0.50789932 0 0 1 -0.5077856,-0.50779 0.50789932,0.50789932 0 0 1 0.5077856,-0.50779 z"
       id="path5230" />
    <path
       id="path5397"
       transform="matrix(0.26458333,0,0,0.26458333,1.2658982,279.89625)"
       d="M 32.242188,0.67578125 A 31.370502,31.370502 0 0 0 0.87109375,32.044922 31.370502,31.370502 0 0 0 32.242188,63.416016 31.370502,31.370502 0 0 0 63.611328,32.044922 31.370502,31.370502 0 0 0 32.242188,0.67578125 Z M 11.416016,17.865234 a 1.9887259,3.1540732 0 0 1 0.01172,0 h 41.669922 v 0.0039 a 1.9887259,3.1540732 0 0 1 1.957032,3.15039 1.9887259,3.1540732 0 0 1 -1.957032,3.150391 v 0.002 H 11.427734 a 1.9887259,3.1540732 0 0 1 -0.01172,0 1.9887259,3.1540732 0 0 1 -1.9882816,-3.152344 1.9887259,3.1540732 0 0 1 1.9882816,-3.154297 z m 0,11.875 a 1.9887259,3.1540732 0 0 1 0.01172,0 h 41.669922 v 0.0039 a 1.9887259,3.1540732 0 0 1 1.957032,3.15039 1.9887259,3.1540732 0 0 1 -1.957032,3.150391 v 0.002 H 11.427734 a 1.9887259,3.1540732 0 0 1 -0.01172,0 1.9887259,3.1540732 0 0 1 -1.9882816,-3.152344 1.9887259,3.1540732 0 0 1 1.9882816,-3.154297 z m 0,11.875 a 1.9887259,3.1540732 0 0 1 0.01172,0 h 41.669922 v 0.0039 a 1.9887259,3.1540732 0 0 1 1.957032,3.148437 1.9887259,3.1540732 0 0 1 -1.957032,3.150391 v 0.0039 H 11.427734 a 1.9887259,3.1540732 0 0 1 -0.01172,0 1.9887259,3.1540732 0 0 1 -1.9882816,-3.154297 1.9887259,3.1540732 0 0 1 1.9882816,-3.152344 z"
       style="display:inline;opacity:0.89800002;fill:#000000;fill-opacity:1;stroke:none;stroke-width:7.91773748;stroke-linecap:round;stroke-miterlimit:4;stroke-dasharray:none;stroke-opacity:0.99435024;filter:url(#filter5655)" />
    <path
       id="circle5399"
       transform="matrix(0.26458333,0,0,0.26458333,1.1754107,279.80497)"
       d="M 32.242188,0.67578125 A 31.370502,31.370502 0 0 0 0.87109375,32.044922 31.370502,31.370502 0 0 0 32.242188,63.416016 31.370502,31.370502 0 0 0 63.611328,32.044922 31.370502,31.370502 0 0 0 32.242188,0.67578125 Z M 11.416016,15.865234 a 1.9887259,2.9969608 0 0 1 0.01172,0 h 41.669922 v 0.0039 a 1.9887259,2.9969608 0 0 1 1.957032,2.992187 1.9887259,2.9969608 0 0 1 -1.957032,2.994141 v 0.0039 H 11.427734 a 1.9887259,2.9969608 0 0 1 -0.01172,0 1.9887259,2.9969608 0 0 1 -1.9882816,-2.998047 1.9887259,2.9969608 0 0 1 1.9882816,-2.996094 z m 0,13.183594 a 1.9887259,2.9969608 0 0 1 0.01172,0 h 41.669922 v 0.0039 a 1.9887259,2.9969608 0 0 1 1.957032,2.992188 1.9887259,2.9969608 0 0 1 -1.957032,2.99414 v 0.0039 H 11.427734 a 1.9887259,2.9969608 0 0 1 -0.01172,0 1.9887259,2.9969608 0 0 1 -1.9882816,-2.998047 1.9887259,2.9969608 0 0 1 1.9882816,-2.996094 z m 0,13.183594 a 1.9887259,2.9969608 0 0 1 0.01172,0 h 41.669922 v 0.0039 a 1.9887259,2.9969608 0 0 1 1.957032,2.992188 1.9887259,2.9969608 0 0 1 -1.957032,2.99414 v 0.002 H 11.427734 a 1.9887259,2.9969608 0 0 1 -0.01172,0 1.9887259,2.9969608 0 0 1 -1.9882816,-2.996093 1.9887259,2.9969608 0 0 1 1.9882816,-2.996094 z"
       style="display:none;opacity:0.90799997;fill:#000000;fill-opacity:1;stroke:none;stroke-width:7.91773748;stroke-linecap:round;stroke-miterlimit:4;stroke-dasharray:none;stroke-opacity:0.99435024;filter:url(#filter5467)" />
    <g
       style="display:none"
       id="g5633">
      <path
         style="opacity:0.48399999;fill:#ff0000;fill-opacity:1;stroke:none;stroke-width:1.71633208;stroke-linecap:round;stroke-miterlimit:4;stroke-dasharray:none;stroke-opacity:0.99435024"
         d="m 3.8895125,284.17357 a 0.52618372,0.83451518 0 0 0 -0.526066,0.83432 0.52618372,0.83451518 0 0 0 0.526066,0.83434 0.52618372,0.83451518 0 0 0 0.0031,0 H 14.917781 v -8.4e-4 a 0.52618372,0.83451518 0 0 0 0.517798,-0.83351 0.52618372,0.83451518 0 0 0 -0.517798,-0.83351 v -8.4e-4 H 3.8926135 a 0.52618372,0.83451518 0 0 0 -0.0031,0 z"
         id="path5415" />
      <path
         style="opacity:0.48399999;fill:#ff0000;fill-opacity:1;stroke:none;stroke-width:1.71633208;stroke-linecap:round;stroke-miterlimit:4;stroke-dasharray:none;stroke-opacity:0.99435024"
         d="m 3.8895125,290.45724 a 0.52618372,0.83451518 0 0 0 -0.526066,0.83432 0.52618372,0.83451518 0 0 0 0.526066,0.83434 0.52618372,0.83451518 0 0 0 0.0031,0 H 14.917781 v -8.4e-4 a 0.52618372,0.83451518 0 0 0 0.517798,-0.83351 0.52618372,0.83451518 0 0 0 -0.517798,-0.83351 v -8.5e-4 H 3.8926135 a 0.52618372,0.83451518 0 0 0 -0.0031,0 z"
         id="path5417" />
      <path
         style="opacity:0.48399999;fill:#ff0000;fill-opacity:1;stroke:none;stroke-width:1.71633208;stroke-linecap:round;stroke-miterlimit:4;stroke-dasharray:none;stroke-opacity:0.99435024"
         d="m 3.8895125,287.31541 a 0.52618372,0.83451518 0 0 0 -0.526066,0.83431 0.52618372,0.83451518 0 0 0 0.526066,0.83435 0.52618372,0.83451518 0 0 0 0.0031,0 H 14.917781 v -8.5e-4 a 0.52618372,0.83451518 0 0 0 0.517798,-0.83351 0.52618372,0.83451518 0 0 0 -0.517798,-0.83351 v -8.4e-4 H 3.8926135 a 0.52618372,0.83451518 0 0 0 -0.0031,0 z"
         id="path5419" />
    </g>
    <path
       style="display:none;opacity:1;fill:#0064ff;fill-opacity:1;stroke:none;stroke-width:7.91773748;stroke-linecap:round;stroke-miterlimit:4;stroke-dasharray:none;stroke-opacity:0.99435024"
       d="M 32.242188,0.67578125 A 31.370502,31.370502 0 0 0 0.87109375,32.044922 31.370502,31.370502 0 0 0 32.242188,63.416016 31.370502,31.370502 0 0 0 63.611328,32.044922 31.370502,31.370502 0 0 0 32.242188,0.67578125 Z M 11.416016,15.865234 a 1.9887259,2.9969608 0 0 1 0.01172,0 h 41.669922 v 0.0039 a 1.9887259,2.9969608 0 0 1 1.957032,2.992187 1.9887259,2.9969608 0 0 1 -1.957032,2.994141 v 0.0039 H 11.427734 a 1.9887259,2.9969608 0 0 1 -0.01172,0 1.9887259,2.9969608 0 0 1 -1.9882816,-2.998047 1.9887259,2.9969608 0 0 1 1.9882816,-2.996094 z m 0,13.183594 a 1.9887259,2.9969608 0 0 1 0.01172,0 h 41.669922 v 0.0039 a 1.9887259,2.9969608 0 0 1 1.957032,2.992188 1.9887259,2.9969608 0 0 1 -1.957032,2.99414 v 0.0039 H 11.427734 a 1.9887259,2.9969608 0 0 1 -0.01172,0 1.9887259,2.9969608 0 0 1 -1.9882816,-2.998047 1.9887259,2.9969608 0 0 1 1.9882816,-2.996094 z m 0,13.183594 a 1.9887259,2.9969608 0 0 1 0.01172,0 h 41.669922 v 0.0039 a 1.9887259,2.9969608 0 0 1 1.957032,2.992188 1.9887259,2.9969608 0 0 1 -1.957032,2.99414 v 0.002 H 11.427734 a 1.9887259,2.9969608 0 0 1 -0.01172,0 1.9887259,2.9969608 0 0 1 -1.9882816,-2.996093 1.9887259,2.9969608 0 0 1 1.9882816,-2.996094 z"
       transform="matrix(0.26458333,0,0,0.26458333,0.86896227,279.44655)"
       id="path5429" />
    <circle
       style="display:none;opacity:0.93800001;fill:#000000;fill-opacity:1;stroke:none;stroke-width:2.09490132;stroke-linecap:round;stroke-miterlimit:4;stroke-dasharray:none;stroke-opacity:0.99435024"
       id="circle5645"
       cx="9.3995123"
       cy="287.92529"
       r="8.3001118" />
    <path
       style="display:inline;opacity:1;fill:#0064ff;fill-opacity:1;stroke:none;stroke-width:7.91773748;stroke-linecap:round;stroke-miterlimit:4;stroke-dasharray:none;stroke-opacity:0.99435024"
       d="M 32.242188,0.67578125 A 31.370502,31.370502 0 0 0 0.87109375,32.044922 31.370502,31.370502 0 0 0 32.242188,63.416016 31.370502,31.370502 0 0 0 63.611328,32.044922 31.370502,31.370502 0 0 0 32.242188,0.67578125 Z M 11.416016,17.865234 a 1.9887259,3.1540732 0 0 1 0.01172,0 h 41.669922 v 0.0039 a 1.9887259,3.1540732 0 0 1 1.957032,3.15039 1.9887259,3.1540732 0 0 1 -1.957032,3.150391 v 0.002 H 11.427734 a 1.9887259,3.1540732 0 0 1 -0.01172,0 1.9887259,3.1540732 0 0 1 -1.9882816,-3.152344 1.9887259,3.1540732 0 0 1 1.9882816,-3.154297 z m 0,11.875 a 1.9887259,3.1540732 0 0 1 0.01172,0 h 41.669922 v 0.0039 a 1.9887259,3.1540732 0 0 1 1.957032,3.15039 1.9887259,3.1540732 0 0 1 -1.957032,3.150391 v 0.002 H 11.427734 a 1.9887259,3.1540732 0 0 1 -0.01172,0 1.9887259,3.1540732 0 0 1 -1.9882816,-3.152344 1.9887259,3.1540732 0 0 1 1.9882816,-3.154297 z m 0,11.875 a 1.9887259,3.1540732 0 0 1 0.01172,0 h 41.669922 v 0.0039 a 1.9887259,3.1540732 0 0 1 1.957032,3.148437 1.9887259,3.1540732 0 0 1 -1.957032,3.150391 v 0.0039 H 11.427734 a 1.9887259,3.1540732 0 0 1 -0.01172,0 1.9887259,3.1540732 0 0 1 -1.9882816,-3.154297 1.9887259,3.1540732 0 0 1 1.9882816,-3.152344 z"
       transform="matrix(0.26458333,0,0,0.26458333,0.86896227,279.44655)"
       id="path5653" />
  </g>
</svg>
