<?xml version="1.0" encoding="UTF-8" standalone="no"?>
<!-- Created with Inkscape (http://www.inkscape.org/) -->

<svg
   xmlns:dc="http://purl.org/dc/elements/1.1/"
   xmlns:cc="http://creativecommons.org/ns#"
   xmlns:rdf="http://www.w3.org/1999/02/22-rdf-syntax-ns#"
   xmlns:svg="http://www.w3.org/2000/svg"
   xmlns="http://www.w3.org/2000/svg"
   xmlns:sodipodi="http://sodipodi.sourceforge.net/DTD/sodipodi-0.dtd"
   xmlns:inkscape="http://www.inkscape.org/namespaces/inkscape"
   width="147.73744"
   height="38.594856"
   viewBox="0 0 39.088864 10.211556"
   version="1.1"
   id="svg8"
   inkscape:version="0.92.2 (5c3e80d, 2017-08-06)"
   sodipodi:docname="next.svg">
  <defs
     id="defs2">
    <marker
       inkscape:stockid="EmptyTriangleOutL"
       orient="auto"
       refY="0"
       refX="0"
       id="EmptyTriangleOutL"
       style="overflow:visible"
       inkscape:isstock="true">
      <path
         id="path4670"
         d="M 5.77,0 -2.88,5 V -5 Z"
         style="fill:#ffffff;fill-rule:evenodd;stroke:#000000;stroke-width:1.00000003pt;stroke-opacity:1"
         transform="matrix(0.8,0,0,0.8,-4.8,0)"
         inkscape:connector-curvature="0" />
    </marker>
    <marker
       inkscape:stockid="TriangleOutL"
       orient="auto"
       refY="0"
       refX="0"
       id="TriangleOutL"
       style="overflow:visible"
       inkscape:isstock="true">
      <path
         id="path4652"
         d="M 5.77,0 -2.88,5 V -5 Z"
         style="fill:#000000;fill-opacity:1;fill-rule:evenodd;stroke:#000000;stroke-width:1.00000003pt;stroke-opacity:1"
         transform="scale(0.8)"
         inkscape:connector-curvature="0" />
    </marker>
    <marker
       inkscape:stockid="TriangleOutL"
       orient="auto"
       refY="0"
       refX="0"
       id="TriangleOutL-2"
       style="overflow:visible"
       inkscape:isstock="true">
      <path
         inkscape:connector-curvature="0"
         id="path4652-9"
         d="M 5.77,0 -2.88,5 V -5 Z"
         style="fill:#000000;fill-opacity:1;fill-rule:evenodd;stroke:#000000;stroke-width:1.00000003pt;stroke-opacity:1"
         transform="scale(0.8)" />
    </marker>
    <filter
       inkscape:collect="always"
       style="color-interpolation-filters:sRGB"
       id="filter8099"
       x="-0.011202192"
       width="1.0224044"
       y="-0.04578153"
       height="1.0915631">
      <feGaussianBlur
         inkscape:collect="always"
         stdDeviation="0.67446532"
         id="feGaussianBlur8101" />
    </filter>
  </defs>
  <sodipodi:namedview
     id="base"
     pagecolor="#ffffff"
     bordercolor="#666666"
     borderopacity="1.0"
     inkscape:pageopacity="0.0"
     inkscape:pageshadow="2"
     inkscape:zoom="5.6"
     inkscape:cx="87.078848"
     inkscape:cy="12.091907"
     inkscape:document-units="px"
     inkscape:current-layer="svg8"
     showgrid="false"
     units="px"
     fit-margin-top="0"
     fit-margin-left="0"
     fit-margin-right="0"
     fit-margin-bottom="0"
     inkscape:window-width="1920"
     inkscape:window-height="1017"
     inkscape:window-x="-8"
     inkscape:window-y="-8"
     inkscape:window-maximized="1" />
  <metadata
     id="metadata5">
    <rdf:RDF>
      <cc:Work
         rdf:about="">
        <dc:format>image/svg+xml</dc:format>
        <dc:type
           rdf:resource="http://purl.org/dc/dcmitype/StillImage" />
        <dc:title></dc:title>
      </cc:Work>
    </rdf:RDF>
  </metadata>
  <rect
     style="display:none;opacity:1;fill:#0064ff;fill-opacity:1;stroke:#000000;stroke-width:0;stroke-miterlimit:4;stroke-dasharray:none;stroke-opacity:1"
     id="rect7418-5"
     width="38.232067"
     height="9.3549109"
     x="-0.10080105"
     y="-0.12734412" />
  <path
     style="opacity:0.9;fill:#000000;fill-opacity:1;stroke:#000000;stroke-width:0;stroke-miterlimit:4;stroke-dasharray:none;stroke-opacity:1;filter:url(#filter8099)"
     d="m 245.85742,289.66211 v 35.35742 h 144.5 v -35.35742 z m 4.96875,3.50977 h 5.625 l 11.71875,19.12109 v -19.12109 h 5.3711 v 28.63281 h -5.80079 l -11.54296,-18.67188 v 18.67188 h -5.3711 z m 28.84766,0 h 21.23047 v 4.84374 h -15.44922 v 6.34766 h 14.375 v 4.82422 h -14.375 v 7.79297 h 15.99609 v 4.82422 h -21.77734 z m 24.72656,0 h 6.75781 l 5.74219,9.19921 5.625,-9.19921 h 6.69922 l -8.90625,13.90624 9.78516,14.72657 h -6.97266 l -6.34766,-9.90235 -6.36718,9.90235 h -6.9336 l 9.78516,-14.94141 z m 26.66016,0 h 22.7539 v 4.84374 h -8.47656 v 23.78907 h -5.78125 v -23.78907 h -8.49609 z m 27.95117,0.42187 28.10351,13.74609 -28.10351,13.74805 z"
     transform="matrix(0.26458333,0,0,0.26458333,-64.621489,-76.21148)"
     id="rect7418"
     inkscape:connector-curvature="0" />
  <g
     inkscape:label="Layer 1"
     inkscape:groupmode="layer"
     id="layer1"
     transform="translate(-65.150735,-76.767214)">
    <text
       xml:space="preserve"
       style="font-style:normal;font-variant:normal;font-weight:normal;font-stretch:normal;font-size:4.23333311px;line-height:1.25;font-family:Arial;-inkscape-font-specification:'Arial, Normal';font-variant-ligatures:normal;font-variant-caps:normal;font-variant-numeric:normal;font-feature-settings:normal;text-align:start;letter-spacing:0px;word-spacing:0px;writing-mode:lr-tb;text-anchor:start;display:none;fill:#000000;fill-opacity:1;stroke:none;stroke-width:0.26458332"
       x="113.15699"
       y="85.057961"
       id="text4506-5"><tspan
         sodipodi:role="line"
         id="tspan4504-5"
         x="113.15699"
         y="85.057961"
         style="font-style:normal;font-variant:normal;font-weight:bold;font-stretch:normal;font-size:10.58333302px;font-family:Arial;-inkscape-font-specification:'Arial, Bold';font-variant-ligatures:normal;font-variant-caps:normal;font-variant-numeric:normal;font-feature-settings:normal;text-align:start;writing-mode:lr-tb;text-anchor:start;stroke-width:0.26458332">NEXT</tspan></text>
    <path
       style="display:none;fill:none;stroke:#000000;stroke-width:0.26458332px;stroke-linecap:butt;stroke-linejoin:miter;stroke-opacity:1"
       d="m 94.988517,77.680012 v 7.274491 l 7.435723,-3.637505 z"
       id="path8103"
       inkscape:connector-curvature="0" />
  </g>
  <path
     inkscape:connector-curvature="0"
     style="display:inline;opacity:1;fill:#0064ff;fill-opacity:1;stroke:#000000;stroke-width:0;stroke-miterlimit:4;stroke-dasharray:none;stroke-opacity:1"
     d="M 0.16369967,0.16370113 V 9.5186851 H 38.395997 V 0.16370113 Z M 1.4783486,1.0923272 h 1.488281 l 3.100586,5.059122 v -5.059122 h 1.421104 v 7.575765 h -1.534793 l -3.054075,-4.940269 v 4.940269 h -1.421103 z m 7.63261,0 h 5.6172294 v 1.281573 h -4.087606 v 1.679485 h 3.803386 v 1.276409 h -3.803386 v 2.06189 h 4.232299 v 1.276408 H 9.1109586 Z m 6.5422364,0 h 1.788004 l 1.519288,2.433958 1.488281,-2.433958 h 1.772502 l -2.356445,3.67936 2.58899,3.896405 h -1.844849 l -1.679485,-2.619997 -1.68465,2.619997 h -1.834515 l 2.58899,-3.953249 z m 7.053834,0 h 6.020305 v 1.281573 h -2.24276 v 6.294192 h -1.529621 v -6.294192 h -2.247924 z m 7.395415,0.11162 7.435723,3.636986 -7.435723,3.637505 z"
     id="rect7418-3" />
</svg>
