<?xml version="1.0" encoding="UTF-8" standalone="no"?>
<svg
   xmlns:dc="http://purl.org/dc/elements/1.1/"
   xmlns:cc="http://creativecommons.org/ns#"
   xmlns:rdf="http://www.w3.org/1999/02/22-rdf-syntax-ns#"
   xmlns:svg="http://www.w3.org/2000/svg"
   xmlns="http://www.w3.org/2000/svg"
   id="svg8"
   version="1.1"
   viewBox="0 0 213.74325 38.052668"
   height="1.4981365in"
   width="8.4150887in">
  <defs
     id="defs2" />
  <metadata
     id="metadata5">
    <rdf:RDF>
      <cc:Work
         rdf:about="">
        <dc:format>image/svg+xml</dc:format>
        <dc:type
           rdf:resource="http://purl.org/dc/dcmitype/StillImage" />
        <dc:title></dc:title>
      </cc:Work>
    </rdf:RDF>
  </metadata>
  <g
     transform="translate(-42.841738,-213.8229)"
     id="layer1">
    <g
       id="text12"
       style="font-style:normal;font-weight:normal;font-size:10.58333302px;line-height:1.25;font-family:sans-serif;letter-spacing:0px;word-spacing:0px;fill:#000000;fill-opacity:1;stroke:none;stroke-width:0.26458332"
       aria-label="OpenSourceOptions">
      <path
         id="path2653"
         style="font-weight:bold"
         d="m 54.505343,227.1986 q -1.697743,0 -2.633431,1.25401 -0.935688,1.25402 -0.935688,3.53054 0,2.26687 0.935688,3.52088 0.935688,1.25402 2.633431,1.25402 1.70739,0 2.643078,-1.25402 0.935688,-1.25401 0.935688,-3.52088 0,-2.27652 -0.935688,-3.53054 -0.935688,-1.25401 -2.643078,-1.25401 z m 0,-2.69131 q 3.472657,0 5.440495,1.98713 1.967839,1.98713 1.967839,5.48873 0,3.49195 -1.967839,5.47908 -1.967838,1.98713 -5.440495,1.98713 -3.46301,0 -5.440495,-1.98713 -1.967838,-1.98713 -1.967838,-5.47908 0,-3.5016 1.967838,-5.48873 1.977485,-1.98713 5.440495,-1.98713 z" />
      <path
         id="path2655"
         style="font-weight:bold"
         d="m 68.010118,237.60692 v 5.67201 H 64.556754 V 228.3658 h 3.453364 v 1.58198 q 0.713824,-0.94533 1.581988,-1.38906 0.868164,-0.45337 1.996777,-0.45337 1.996778,0 3.279731,1.59163 1.282954,1.58199 1.282954,4.08037 0,2.49839 -1.282954,4.09002 -1.282953,1.58199 -3.279731,1.58199 -1.128613,0 -1.996777,-0.44373 -0.868164,-0.45337 -1.581988,-1.39871 z m 2.295812,-6.99354 q -1.109321,0 -1.707389,0.81993 -0.588423,0.81029 -0.588423,2.34404 0,1.53376 0.588423,2.35369 0.598068,0.81029 1.707389,0.81029 1.109321,0 1.688097,-0.81029 0.588422,-0.81028 0.588422,-2.35369 0,-1.5434 -0.588422,-2.35369 -0.578776,-0.81028 -1.688097,-0.81028 z" />
      <path
         id="path2657"
         style="font-weight:bold"
         d="m 89.502002,233.73877 v 0.98392 h -8.073926 q 0.125402,1.21543 0.877811,1.82314 0.752409,0.60772 2.102886,0.60772 1.090028,0 2.228288,-0.31833 1.147906,-0.32797 2.353689,-0.98392 v 2.66237 q -1.225076,0.46302 -2.450152,0.69453 -1.225076,0.24116 -2.450152,0.24116 -2.932465,0 -4.562684,-1.48553 -1.620573,-1.49517 -1.620573,-4.18648 0,-2.64307 1.591634,-4.15754 1.60128,-1.51446 4.398698,-1.51446 2.546615,0 4.070725,1.53375 1.533756,1.53376 1.533756,4.09967 z m -3.549826,-1.14791 q 0,-0.98392 -0.578776,-1.58199 -0.56913,-0.60771 -1.495172,-0.60771 -1.003211,0 -1.630219,0.56913 -0.627007,0.55948 -0.781348,1.62057 z" />
      <path
         id="path2659"
         style="font-weight:bold"
         d="m 102.96819,232.59086 v 6.57876 h -3.472657 v -1.07074 -3.96462 q 0,-1.3987 -0.06752,-1.92925 -0.05788,-0.53054 -0.212217,-0.78135 -0.202572,-0.33762 -0.549838,-0.52089 -0.347265,-0.19293 -0.790994,-0.19293 -1.080382,0 -1.697743,0.83923 -0.617361,0.82957 -0.617361,2.30545 v 5.3151 H 92.106492 V 228.3658 h 3.453364 v 1.58198 q 0.781348,-0.94533 1.659158,-1.38906 0.877811,-0.45337 1.9389,-0.45337 1.871376,0 2.836006,1.1479 0.97427,1.14791 0.97427,3.33761 z" />
      <path
         id="path2661"
         style="font-weight:bold"
         d="m 116.36686,225.22111 v 3.04822 q -1.18649,-0.53054 -2.31511,-0.80064 -1.12861,-0.27009 -2.13182,-0.27009 -1.33119,0 -1.96784,0.36656 -0.63665,0.36655 -0.63665,1.13826 0,0.57877 0.42443,0.90675 0.43408,0.31832 1.5627,0.54983 l 1.58199,0.31833 q 2.40192,0.48231 3.41477,1.46623 1.01286,0.98392 1.01286,2.79742 0,2.38263 -1.418,3.54983 -1.40835,1.15755 -4.31188,1.15755 -1.36977,0 -2.74919,-0.26045 -1.37941,-0.26045 -2.75883,-0.7717 v -3.13504 q 1.37942,0.73312 2.66237,1.10932 1.2926,0.36656 2.48874,0.36656 1.21543,0 1.86173,-0.40514 0.6463,-0.40515 0.6463,-1.15756 0,-0.67523 -0.44373,-1.04179 -0.43408,-0.36656 -1.74598,-0.65595 l -1.43729,-0.31833 q -2.16076,-0.46302 -3.16398,-1.47587 -0.99356,-1.01286 -0.99356,-2.7299 0,-2.15112 1.38906,-3.30867 1.38906,-1.15755 3.99356,-1.15755 1.18649,0 2.4405,0.18328 1.25402,0.17363 2.59485,0.53054 z" />
      <path
         id="path2663"
         style="font-weight:bold"
         d="m 125.56939,230.57479 q -1.1479,0 -1.75562,0.82958 -0.59806,0.81993 -0.59806,2.37298 0,1.55305 0.59806,2.38263 0.60772,0.81993 1.75562,0.81993 1.12862,0 1.72669,-0.81993 0.59807,-0.82958 0.59807,-2.38263 0,-1.55305 -0.59807,-2.37298 -0.59807,-0.82958 -1.72669,-0.82958 z m 0,-2.46944 q 2.78778,0 4.35047,1.50482 1.57234,1.50481 1.57234,4.16718 0,2.66237 -1.57234,4.16719 -1.56269,1.50482 -4.35047,1.50482 -2.79741,0 -4.3794,-1.50482 -1.57234,-1.50482 -1.57234,-4.16719 0,-2.66237 1.57234,-4.16718 1.58199,-1.50482 4.3794,-1.50482 z" />
      <path
         id="path2665"
         style="font-weight:bold"
         d="m 133.89413,234.96384 v -6.59804 h 3.47265 v 1.08038 q 0,0.87781 -0.01,2.20899 -0.01,1.32154 -0.01,1.76527 0,1.30225 0.0675,1.88102 0.0675,0.56913 0.23151,0.82958 0.21222,0.33762 0.54984,0.5209 0.34727,0.18328 0.791,0.18328 1.08038,0 1.69774,-0.82958 0.61736,-0.82958 0.61736,-2.30546 v -5.33438 h 3.45336 v 10.80382 h -3.45336 v -1.5627 q -0.78135,0.94534 -1.65916,1.39871 -0.86816,0.44373 -1.91961,0.44373 -1.87137,0 -2.85529,-1.14791 -0.97427,-1.1479 -0.97427,-3.33761 z" />
      <path
         id="path2667"
         style="font-weight:bold"
         d="m 156.11913,231.30791 q -0.45338,-0.21222 -0.90675,-0.30868 -0.44373,-0.10611 -0.89711,-0.10611 -1.33118,0 -2.05465,0.85852 -0.71383,0.84887 -0.71383,2.4405 v 4.97748 h -3.45336 V 228.3658 h 3.45336 v 1.77491 q 0.6656,-1.06109 1.52411,-1.5434 0.86817,-0.49196 2.07395,-0.49196 0.17364,0 0.37621,0.0193 0.20257,0.01 0.58842,0.0579 z" />
      <path
         id="path2669"
         style="font-weight:bold"
         d="m 166.58533,228.70342 v 2.81671 q -0.70418,-0.48232 -1.418,-0.71383 -0.70418,-0.23151 -1.46624,-0.23151 -1.44694,0 -2.25722,0.84887 -0.80064,0.83923 -0.80064,2.35369 0,1.51447 0.80064,2.36334 0.81028,0.83922 2.25722,0.83922 0.81029,0 1.53376,-0.24115 0.73312,-0.24116 1.35048,-0.71383 v 2.82636 q -0.81029,0.29903 -1.64951,0.44373 -0.82958,0.15434 -1.66881,0.15434 -2.92282,0 -4.57233,-1.49517 -1.64951,-1.50482 -1.64951,-4.17684 0,-2.67201 1.64951,-4.16718 1.64951,-1.50482 4.57233,-1.50482 0.84887,0 1.66881,0.15434 0.82957,0.14469 1.64951,0.44373 z" />
      <path
         id="path2671"
         style="font-weight:bold"
         d="m 180.36984,233.73877 v 0.98392 h -8.07393 q 0.12541,1.21543 0.87781,1.82314 0.75241,0.60772 2.10289,0.60772 1.09003,0 2.22829,-0.31833 1.1479,-0.32797 2.35369,-0.98392 v 2.66237 q -1.22508,0.46302 -2.45015,0.69453 -1.22508,0.24116 -2.45016,0.24116 -2.93246,0 -4.56268,-1.48553 -1.62057,-1.49517 -1.62057,-4.18648 0,-2.64307 1.59163,-4.15754 1.60128,-1.51446 4.3987,-1.51446 2.54661,0 4.07072,1.53375 1.53376,1.53376 1.53376,4.09967 z m -3.54983,-1.14791 q 0,-0.98392 -0.57877,-1.58199 -0.56913,-0.60771 -1.49517,-0.60771 -1.00322,0 -1.63022,0.56913 -0.62701,0.55948 -0.78135,1.62057 z" />
      <path
         id="path2673"
         style="font-style:normal;font-variant:normal;font-weight:normal;font-stretch:normal;font-size:19.75555611px;font-family:sans-serif;-inkscape-font-specification:'sans-serif, Normal';font-variant-ligatures:normal;font-variant-caps:normal;font-variant-numeric:normal;font-feature-settings:normal;text-align:start;writing-mode:lr-tb;text-anchor:start;stroke-width:0.26458332"
         d="m 189.09972,226.08928 q -2.12218,0 -3.3762,1.58199 -1.24437,1.58198 -1.24437,4.31188 0,2.72024 1.24437,4.30223 1.25402,1.58199 3.3762,1.58199 2.12217,0 3.3569,-1.58199 1.24437,-1.58199 1.24437,-4.30223 0,-2.7299 -1.24437,-4.31188 -1.23473,-1.58199 -3.3569,-1.58199 z m 0,-1.58199 q 3.02892,0 4.84242,2.03536 1.8135,2.02572 1.8135,5.4405 0,3.40513 -1.8135,5.44049 -1.8135,2.02572 -4.84242,2.02572 -3.03858,0 -4.86172,-2.02572 -1.8135,-2.02571 -1.8135,-5.44049 0,-3.41478 1.8135,-5.4405 1.82314,-2.03536 4.86172,-2.03536 z" />
      <path
         id="path2675"
         style="font-style:normal;font-variant:normal;font-weight:normal;font-stretch:normal;font-size:19.75555611px;font-family:sans-serif;-inkscape-font-specification:'sans-serif, Normal';font-variant-ligatures:normal;font-variant-caps:normal;font-variant-numeric:normal;font-feature-settings:normal;text-align:start;writing-mode:lr-tb;text-anchor:start;stroke-width:0.26458332"
         d="m 200.44372,237.54904 v 5.72989 h -1.78456 V 228.3658 h 1.78456 v 1.63986 q 0.55948,-0.96462 1.40835,-1.42765 0.85852,-0.47266 2.04501,-0.47266 1.96784,0 3.19292,1.56269 1.23472,1.5627 1.23472,4.10931 0,2.54662 -1.23472,4.10931 -1.22508,1.5627 -3.19292,1.5627 -1.18649,0 -2.04501,-0.46302 -0.84887,-0.47267 -1.40835,-1.4373 z m 6.03856,-3.77169 q 0,-1.95819 -0.81029,-3.06751 -0.80064,-1.11897 -2.20899,-1.11897 -1.40836,0 -2.21864,1.11897 -0.80064,1.10932 -0.80064,3.06751 0,1.9582 0.80064,3.07716 0.81028,1.10932 2.21864,1.10932 1.40835,0 2.20899,-1.10932 0.81029,-1.11896 0.81029,-3.07716 z" />
      <path
         id="path2677"
         style="font-style:normal;font-variant:normal;font-weight:normal;font-stretch:normal;font-size:19.75555611px;font-family:sans-serif;-inkscape-font-specification:'sans-serif, Normal';font-variant-ligatures:normal;font-variant-caps:normal;font-variant-numeric:normal;font-feature-settings:normal;text-align:start;writing-mode:lr-tb;text-anchor:start;stroke-width:0.26458332"
         d="m 213.02246,225.29828 v 3.06752 h 3.65594 v 1.37941 h -3.65594 v 5.86493 q 0,1.32154 0.35692,1.69775 0.36655,0.3762 1.47587,0.3762 h 1.82315 v 1.48553 h -1.82315 q -2.05465,0 -2.836,-0.76206 -0.78135,-0.7717 -0.78135,-2.79742 v -5.86493 h -1.30224 v -1.37941 h 1.30224 v -3.06752 z" />
      <path
         id="path2679"
         style="font-style:normal;font-variant:normal;font-weight:normal;font-stretch:normal;font-size:19.75555611px;font-family:sans-serif;-inkscape-font-specification:'sans-serif, Normal';font-variant-ligatures:normal;font-variant-caps:normal;font-variant-numeric:normal;font-feature-settings:normal;text-align:start;writing-mode:lr-tb;text-anchor:start;stroke-width:0.26458332"
         d="m 219.02244,228.3658 h 1.77492 v 10.80382 h -1.77492 z m 0,-4.20578 h 1.77492 v 2.24758 h -1.77492 z" />
      <path
         id="path2681"
         style="font-style:normal;font-variant:normal;font-weight:normal;font-stretch:normal;font-size:19.75555611px;font-family:sans-serif;-inkscape-font-specification:'sans-serif, Normal';font-variant-ligatures:normal;font-variant-caps:normal;font-variant-numeric:normal;font-feature-settings:normal;text-align:start;writing-mode:lr-tb;text-anchor:start;stroke-width:0.26458332"
         d="m 228.688,229.61017 q -1.42764,0 -2.25722,1.11896 -0.82958,1.10932 -0.82958,3.04822 0,1.9389 0.81993,3.05787 0.82958,1.10932 2.26687,1.10932 1.418,0 2.24758,-1.11897 0.82958,-1.11896 0.82958,-3.04822 0,-1.9196 -0.82958,-3.03857 -0.82958,-1.12861 -2.24758,-1.12861 z m 0,-1.50482 q 2.31511,0 3.63665,1.50482 1.32153,1.50481 1.32153,4.16718 0,2.65273 -1.32153,4.16719 -1.32154,1.50482 -3.63665,1.50482 -2.32475,0 -3.64629,-1.50482 -1.31189,-1.51446 -1.31189,-4.16719 0,-2.66237 1.31189,-4.16718 1.32154,-1.50482 3.64629,-1.50482 z" />
      <path
         id="path2683"
         style="font-style:normal;font-variant:normal;font-weight:normal;font-stretch:normal;font-size:19.75555611px;font-family:sans-serif;-inkscape-font-specification:'sans-serif, Normal';font-variant-ligatures:normal;font-variant-caps:normal;font-variant-numeric:normal;font-feature-settings:normal;text-align:start;writing-mode:lr-tb;text-anchor:start;stroke-width:0.26458332"
         d="m 245.55932,232.64874 v 6.52088 h -1.77492 v -6.463 q 0,-1.53376 -0.59807,-2.29581 -0.59806,-0.76206 -1.7942,-0.76206 -1.4373,0 -2.26687,0.9164 -0.82958,0.91639 -0.82958,2.49838 v 6.10609 h -1.78456 V 228.3658 h 1.78456 v 1.67845 q 0.63665,-0.97428 1.49517,-1.45659 0.86816,-0.48231 1.99678,-0.48231 1.86173,0 2.81671,1.15755 0.95498,1.14791 0.95498,3.38584 z" />
      <path
         id="path2685"
         style="font-style:normal;font-variant:normal;font-weight:normal;font-stretch:normal;font-size:19.75555611px;font-family:sans-serif;-inkscape-font-specification:'sans-serif, Normal';font-variant-ligatures:normal;font-variant-caps:normal;font-variant-numeric:normal;font-feature-settings:normal;text-align:start;writing-mode:lr-tb;text-anchor:start;stroke-width:0.26458332"
         d="m 256.00622,228.68412 v 1.67845 q -0.75241,-0.38585 -1.56269,-0.57877 -0.81029,-0.19293 -1.67845,-0.19293 -1.32154,0 -1.98714,0.40515 -0.65594,0.40514 -0.65594,1.21543 0,0.61736 0.47267,0.97427 0.47266,0.34726 1.90031,0.66559 l 0.60772,0.13505 q 1.89066,0.40514 2.68166,1.1479 0.80064,0.73312 0.80064,2.05466 0,1.50482 -1.19614,2.38263 -1.18649,0.87781 -3.27008,0.87781 -0.86817,0 -1.8135,-0.17363 -0.93569,-0.16399 -1.97749,-0.50161 v -1.83279 q 0.98392,0.51125 1.9389,0.7717 0.95498,0.2508 1.89067,0.2508 1.25402,0 1.92925,-0.42443 0.67524,-0.43408 0.67524,-1.21543 0,-0.72347 -0.49196,-1.10932 -0.48231,-0.38585 -2.13182,-0.74277 l -0.61736,-0.14469 q -1.64951,-0.34727 -2.38263,-1.06109 -0.73312,-0.72347 -0.73312,-1.97748 0,-1.52411 1.08039,-2.35369 1.08038,-0.82958 3.06751,-0.82958 0.98392,0 1.85208,0.14469 0.86817,0.1447 1.60128,0.43408 z" />
    </g>
    <rect
       y="221.53625"
       x="43.84124"
       height="24.099182"
       width="215.99953"
       id="rect16"
       style="display:none;opacity:1;fill:#e9691f;fill-opacity:0;stroke:#000000;stroke-width:0.21884118" />
    <path
       id="path18"
       d="m 189.13555,218.55261 v 29.93418 h 0.26727"
       style="display:none;fill:none;stroke:#000000;stroke-width:0.26458332px;stroke-linecap:butt;stroke-linejoin:miter;stroke-opacity:1" />
    <path
       id="path20"
       d="m 253.0935,221.43435 v 24.32662"
       style="display:none;fill:none;stroke:#000000;stroke-width:0.31802294px;stroke-linecap:butt;stroke-linejoin:miter;stroke-opacity:1" />
    <path
       id="path26"
       d="m 186.33166,220.64372 -142.490422,0.0383 v 24.9534 H 186.37801"
       style="fill:none;stroke:#000000;stroke-width:1.99899995;stroke-linecap:butt;stroke-linejoin:miter;stroke-miterlimit:4;stroke-dasharray:none;stroke-opacity:1" />
    <path
       id="path833-3"
       d="m 253.17945,240.2423 -0.0776,6.50932 -63.95795,3.79727 c 0,0 0.0334,-10.10837 0,-10.36231"
       style="fill:none;stroke:#0064ff;stroke-width:2.5;stroke-linecap:butt;stroke-linejoin:miter;stroke-miterlimit:4;stroke-dasharray:none;stroke-opacity:1" />
    <path
       id="path833"
       d="m 253.09751,227.56905 -0.0774,-6.88682 -63.81103,-5.49702 v 8.97174"
       style="fill:none;stroke:#0064ff;stroke-width:2.5;stroke-linecap:butt;stroke-linejoin:miter;stroke-miterlimit:4;stroke-dasharray:none;stroke-opacity:1" />
  </g>
</svg>
