<?xml version="1.0" encoding="UTF-8" standalone="no"?>
<svg
   xmlns:dc="http://purl.org/dc/elements/1.1/"
   xmlns:cc="http://creativecommons.org/ns#"
   xmlns:rdf="http://www.w3.org/1999/02/22-rdf-syntax-ns#"
   xmlns:svg="http://www.w3.org/2000/svg"
   xmlns="http://www.w3.org/2000/svg"
   id="svg6481"
   version="1.1"
   viewBox="0 0 17.299392 17.399673"
   height="65.762543"
   width="65.38353">
  <defs
     id="defs6475">
    <filter
       height="1.036"
       y="-0.017999999"
       width="1.036"
       x="-0.017999999"
       id="filter7198"
       style="color-interpolation-filters:sRGB">
      <feGaussianBlur
         id="feGaussianBlur7200"
         stdDeviation="0.47056643" />
    </filter>
  </defs>
  <metadata
     id="metadata6478">
    <rdf:RDF>
      <cc:Work
         rdf:about="">
        <dc:format>image/svg+xml</dc:format>
        <dc:type
           rdf:resource="http://purl.org/dc/dcmitype/StillImage" />
        <dc:title></dc:title>
      </cc:Work>
    </rdf:RDF>
  </metadata>
  <g
     transform="translate(-135.28476,-112.78433)"
     id="layer1">
    <path
       id="circle7124"
       transform="matrix(0.26458333,0,0,0.26458333,0.40004574,0.50032486)"
       d="m 542.68359,426.27148 a 31.370501,31.370501 0 0 0 -31.37109,31.3711 31.370501,31.370501 0 0 0 31.37109,31.37109 31.370501,31.370501 0 0 0 31.3711,-31.37109 31.370501,31.370501 0 0 0 -31.3711,-31.3711 z m 0,13.0254 c 0,0 16.28648,3.5e-4 20.34766,1.0957 2.24077,0.60276 4.00461,2.37948 4.60352,4.63476 1.08827,4.0876 1.08789,12.61524 1.08789,12.61524 0,0 3.8e-4,8.52917 -1.08789,12.61719 -0.59891,2.25498 -2.36275,4.02982 -4.60352,4.63281 -4.06118,1.09515 -20.34766,1.0957 -20.34766,1.0957 0,0 -16.28441,-5.5e-4 -20.3457,-1.0957 -2.24058,-0.60299 -4.0066,-2.37783 -4.60547,-4.63281 -1.0882,-4.08802 -1.08789,-12.61719 -1.08789,-12.61719 0,0 -3.1e-4,-8.52764 1.08789,-12.61524 0.59887,-2.25528 2.36489,-4.032 4.60547,-4.63476 4.06129,-1.09535 20.3457,-1.0957 20.3457,-1.0957 z m -5.32617,10.60156 v 15.48633 l 13.61133,-7.74219 z"
       style="display:inline;opacity:0.9;fill:#000000;fill-opacity:1;stroke:none;stroke-width:7.91773748;stroke-linecap:round;stroke-miterlimit:4;stroke-dasharray:none;stroke-opacity:0.99435024;filter:url(#filter7198)" />
    <path
       id="path7187"
       style="display:none;fill:#ffffff;fill-opacity:1;fill-rule:nonzero;stroke:none;stroke-width:0.01302595"
       d="m 142.55967,126.44518 5.99194,-3.40856 -5.99194,-3.4089 v 6.81746" />
    <path
       id="path7189"
       style="display:none;fill:#252323;fill-opacity:1;fill-rule:nonzero;stroke:none;stroke-width:0.01302595"
       d="m 155.88808,117.48258 c -0.26364,-0.99283 -1.04038,-1.77465 -2.02684,-2.03999 -1.78781,-0.48222 -8.9569,-0.48222 -8.9569,-0.48222 0,0 -7.16906,0 -8.95692,0.48222 -0.98636,0.26534 -1.76324,1.04716 -2.02686,2.03999 -0.47906,1.79945 -0.47906,5.55388 -0.47906,5.55388 0,0 0,3.75438 0.47906,5.55399 0.26362,0.99272 1.0405,1.77453 2.02686,2.03999 1.78786,0.48211 8.95692,0.48211 8.95692,0.48211 0,0 7.16909,0 8.9569,-0.48211 0.98646,-0.26546 1.7632,-1.04727 2.02684,-2.03999 0.4791,-1.79961 0.4791,-5.55399 0.4791,-5.55399 0,0 0,-3.75443 -0.4791,-5.55388" />
    <circle
       style="display:none;opacity:1;fill:#0064ff;fill-opacity:1;stroke:none;stroke-width:2.09490132;stroke-linecap:round;stroke-miterlimit:4;stroke-dasharray:none;stroke-opacity:0.99435024"
       id="circle7192"
       cx="143.5851"
       cy="121.08451"
       r="8.3001118" />
    <path
       style="display:inline;opacity:1;fill:#0064ff;fill-opacity:1;stroke:none;stroke-width:7.91773748;stroke-linecap:round;stroke-miterlimit:4;stroke-dasharray:none;stroke-opacity:0.99435024"
       d="m 542.68359,426.27148 a 31.370501,31.370501 0 0 0 -31.37109,31.3711 31.370501,31.370501 0 0 0 31.37109,31.37109 31.370501,31.370501 0 0 0 31.3711,-31.37109 31.370501,31.370501 0 0 0 -31.3711,-31.3711 z m 0,13.0254 c 0,0 16.28648,3.5e-4 20.34766,1.0957 2.24077,0.60276 4.00461,2.37948 4.60352,4.63476 1.08827,4.0876 1.08789,12.61524 1.08789,12.61524 0,0 3.8e-4,8.52917 -1.08789,12.61719 -0.59891,2.25498 -2.36275,4.02982 -4.60352,4.63281 -4.06118,1.09515 -20.34766,1.0957 -20.34766,1.0957 0,0 -16.28441,-5.5e-4 -20.3457,-1.0957 -2.24058,-0.60299 -4.0066,-2.37783 -4.60547,-4.63281 -1.0882,-4.08802 -1.08789,-12.61719 -1.08789,-12.61719 0,0 -3.1e-4,-8.52764 1.08789,-12.61524 0.59887,-2.25528 2.36489,-4.032 4.60547,-4.63476 4.06129,-1.09535 20.3457,-1.0957 20.3457,-1.0957 z m -5.32617,10.60156 v 15.48633 l 13.61133,-7.74219 z"
       transform="scale(0.26458333)"
       id="path7196" />
  </g>
</svg>
